<svg width="484" height="400" viewBox="0 0 484 400" fill="none" xmlns="http://www.w3.org/2000/svg">
<g clip-path="url(#clip0)">
<path d="M427.084 228.656C424.433 251.373 418.923 269.613 411.361 284.159C401.298 303.54 384.085 311.349 368.708 319.521C364.265 321.878 359.645 323.886 354.891 325.528C326.911 335.239 295.594 332.663 270.995 327.536C253.742 323.937 236.228 321.723 218.622 320.914C213.6 320.688 208.574 320.576 203.542 320.577C195.783 320.587 56.0819 323.239 22.0685 254.377C13.6708 237.39 7.91473 216.64 5.84676 191.347C-0.00495291 119.838 32.1568 72.8733 73.6421 42.1758C152.119 -15.8935 259.689 -13.4583 337.009 46.1406C388.512 85.8397 436.735 145.922 427.084 228.656Z" fill="white"/>
<path d="M150.947 207.953C150.947 264.793 117.156 284.64 75.4735 284.64C33.7906 284.64 0 264.793 0 207.953C0 151.113 75.4735 78.8032 75.4735 78.8032C75.4735 78.8032 150.947 151.113 150.947 207.953Z" fill="#1B487E"/>
<path d="M72.7242 275.945L73.497 228.375L105.666 169.524L73.6183 220.912L73.9655 199.523L96.1361 156.945L74.0576 193.863L74.6825 155.393L98.4234 121.495L74.7806 149.343L75.171 78.8034L72.7172 172.186L72.9189 168.334L48.7815 131.387L72.532 175.728L70.2829 218.693L70.216 217.552L42.3899 178.672L70.1314 221.581L69.8502 226.954L69.7998 227.035L69.823 227.476L64.1172 336.48H71.7405L72.6553 280.178L100.329 237.374L72.7242 275.945Z" fill="#3F3D56"/>
<path d="M483.03 211.475C483.03 268.316 449.24 288.162 407.557 288.162C365.874 288.162 332.083 268.316 332.083 211.475C332.083 154.635 407.557 82.3253 407.557 82.3253C407.557 82.3253 483.03 154.635 483.03 211.475Z" fill="#1B487E"/>
<path d="M404.807 279.467L405.58 231.897L437.749 173.046L405.702 224.434L406.049 203.045L428.219 160.467L406.141 197.385L406.766 158.915L430.507 125.017L406.864 152.865L407.254 82.3255L404.8 175.708L405.002 171.856L380.865 134.909L404.615 179.251L402.366 222.215L402.299 221.074L374.473 182.194L402.215 225.103L401.933 230.476L401.883 230.557L401.906 230.998L396.2 340.003H403.824L404.739 283.7L432.412 240.896L404.807 279.467Z" fill="#3F3D56"/>
<path d="M326.045 163.201C326.045 225.347 289.101 247.045 243.528 247.045C197.954 247.045 161.01 225.347 161.01 163.201C161.01 101.056 243.528 21.9973 243.528 21.9973C243.528 21.9973 326.045 101.056 326.045 163.201Z" fill="#1B487E"/>
<path d="M240.522 237.539L241.367 185.529L276.538 121.185L241.499 177.37L241.879 153.985L266.119 107.432L241.979 147.796L242.663 105.735L268.62 68.6738L242.77 99.1213L243.197 21.9975L240.514 124.096L240.735 119.884L214.345 79.4892L240.311 127.969L237.853 174.943L237.78 173.696L207.356 131.188L237.687 178.101L237.38 183.976L237.325 184.064L237.35 184.546L231.111 303.724H239.447L240.446 242.167L270.703 195.368L240.522 237.539Z" fill="#3F3D56"/>
<path d="M418.626 345.156C418.626 358.494 331.221 400 223.402 400C115.582 400 28.1768 358.494 28.1768 345.156C28.1768 331.817 108.538 301.884 216.357 301.884C324.177 301.884 418.626 331.817 418.626 345.156Z" fill="#3F3D56"/>
<path opacity="0.1" d="M418.626 345.156C418.626 358.494 331.221 400 223.402 400C115.582 400 28.1768 358.494 28.1768 345.156C28.1768 331.817 108.538 301.884 216.357 301.884C324.177 301.884 418.626 331.817 418.626 345.156Z" fill="black"/>
<path d="M418.626 345.156C418.626 358.494 331.221 369.307 223.402 369.307C115.582 369.307 28.1768 358.494 28.1768 345.156C28.1768 331.817 108.538 301.884 216.357 301.884C324.177 301.884 418.626 331.817 418.626 345.156Z" fill="#3F3D56"/>
<path d="M289.028 278.277C289.028 297.411 301.032 312.895 315.866 312.895L289.028 278.277Z" fill="#3F3D56"/>
<path d="M315.866 312.895C315.866 293.545 329.262 277.888 345.817 277.888L315.866 312.895Z" fill="#1B487E"/>
<path d="M298.752 280.011C298.752 298.187 306.407 312.895 315.866 312.895L298.752 280.011Z" fill="#1B487E"/>
<path d="M315.866 312.895C315.866 288.17 331.35 268.164 350.484 268.164L315.866 312.895Z" fill="#3F3D56"/>
<path d="M310.22 313.139C310.22 313.139 314.026 313.021 315.173 312.205C316.321 311.388 321.028 310.413 321.313 311.722C321.597 313.032 327.033 318.238 322.736 318.272C318.439 318.307 312.751 317.603 311.606 316.906C310.461 316.208 310.22 313.139 310.22 313.139Z" fill="#A8A8A8"/>
<path opacity="0.2" d="M322.812 317.817C318.515 317.851 312.828 317.147 311.683 316.45C310.811 315.919 310.464 314.013 310.347 313.134C310.267 313.137 310.22 313.139 310.22 313.139C310.22 313.139 310.461 316.208 311.606 316.906C312.751 317.603 318.438 318.307 322.736 318.273C323.976 318.263 324.405 317.821 324.381 317.168C324.209 317.562 323.736 317.809 322.812 317.817Z" fill="black"/>
<path opacity="0.1" d="M225.917 353.206C262.598 353.206 292.334 348.476 292.334 342.64C292.334 336.805 262.598 332.074 225.917 332.074C189.236 332.074 159.501 336.805 159.501 342.64C159.501 348.476 189.236 353.206 225.917 353.206Z" fill="black"/>
<path d="M255.1 318.992H248.559V334.086H255.1V318.992Z" fill="#FFB9B9"/>
<path d="M255.604 115.213H230.446V160.497H255.604V115.213Z" fill="#FF6584"/>
<path d="M274.08 200.916L274.95 207.883L252.021 214.848L249.118 202.078L274.08 200.916Z" fill="#FFB9B9"/>
<path d="M240.121 133.87C240.121 133.87 239.54 139.094 238.379 139.094C237.218 139.094 233.155 141.126 233.155 141.126L231.994 146.64L240.121 151.575L253.472 150.123L257.245 144.318L253.472 140.545C253.472 140.545 250.28 133.579 251.441 132.128C252.601 130.677 240.121 133.87 240.121 133.87Z" fill="#FFB9B9"/>
<path opacity="0.1" d="M240.121 133.87C240.121 133.87 239.54 139.094 238.379 139.094C237.218 139.094 233.155 141.126 233.155 141.126L231.994 146.64L240.121 151.575L253.472 150.123L257.245 144.318L253.472 140.545C253.472 140.545 250.28 133.579 251.441 132.128C252.601 130.677 240.121 133.87 240.121 133.87Z" fill="black"/>
<path d="M203.84 314.694C203.84 314.694 201.228 332.109 198.035 333.27C194.842 334.431 210.225 336.462 210.225 336.462L211.386 330.077C211.386 330.077 211.676 318.467 212.837 316.726C213.998 314.984 203.84 314.694 203.84 314.694Z" fill="#FFB9B9"/>
<path d="M233.445 213.397C233.445 213.397 275.531 205.851 275.821 204.4C276.112 202.948 284.529 215.429 279.304 239.81C274.08 264.191 261.019 321.66 261.019 321.66C261.019 321.66 247.667 325.723 247.957 322.53C248.248 319.338 252.601 263.9 252.601 263.9L249.699 240.39L244.765 243.293L224.157 283.928L213.708 319.048C213.708 319.048 200.357 321.369 202.389 316.435C204.42 311.501 211.096 273.188 211.096 273.188L229.382 219.202C229.382 219.202 228.801 213.397 233.445 213.397Z" fill="#2F2E41"/>
<path d="M244.039 137.788C250.772 137.788 256.229 132.33 256.229 125.597C256.229 118.865 250.772 113.407 244.039 113.407C237.306 113.407 231.849 118.865 231.849 125.597C231.849 132.33 237.306 137.788 244.039 137.788Z" fill="#FFB9B9"/>
<path d="M256.665 140.835C256.665 140.835 250.86 146.35 237.218 144.899C223.577 143.448 240.991 175.955 240.991 175.955L246.506 208.753C246.506 208.753 270.887 205.851 271.758 200.336C272.628 194.822 256.665 140.835 256.665 140.835Z" fill="#F2F2F2"/>
<path d="M250.86 171.892C250.86 171.892 243.894 168.409 241.282 158.831C238.669 149.253 236.347 139.384 234.896 139.674C233.671 139.92 222.307 144.303 218.624 147.234C217.945 147.774 217.527 148.266 217.481 148.672C217.191 151.284 227.93 177.407 227.93 177.407C227.93 177.407 236.347 196.273 232.864 202.368C229.382 208.463 229.091 216.3 235.477 215.719C241.862 215.139 263.05 213.978 260.148 197.724C260.148 197.724 265.662 209.044 281.046 200.917C281.046 200.917 290.334 199.465 290.043 196.273C289.753 193.08 275.241 165.506 275.241 165.506C275.241 165.506 272.919 153.316 277.272 148.672L267.404 137.062C267.404 137.062 265.082 133.579 262.76 135.321C260.438 137.062 255.214 139.965 254.343 140.255C253.472 140.545 252.9 139.212 252.9 139.212C250.889 143.418 250.082 148.099 250.57 152.736C251.44 160.282 250.86 171.892 250.86 171.892Z" fill="#2F2E41"/>
<path d="M204.71 329.787C204.71 329.787 204.062 327.755 200.323 329.787C200.323 329.787 201.518 323.401 197.454 323.401C193.391 323.401 191.94 330.948 191.94 330.948C191.94 330.948 190.779 335.882 182.942 337.914C175.105 339.945 181.2 346.911 186.715 346.911C192.23 346.911 199.486 342.558 199.486 342.558C199.486 342.558 214.579 342.848 214.869 339.945C215.159 337.043 213.418 328.335 212.257 328.335C211.096 328.335 208.774 332.399 208.774 332.399L204.71 329.787Z" fill="#2F2E41"/>
<path d="M254.053 324.679C254.053 324.679 249.989 320.325 247.667 327.581C245.345 334.837 243.604 337.74 245.055 338.901C246.506 340.062 247.667 339.481 247.087 341.803C246.506 344.125 248.828 349.059 254.053 349.059C259.277 349.059 260.728 345.286 260.438 342.674C260.148 340.062 257.826 336.869 257.826 336.869L255.504 328.742L254.053 324.679Z" fill="#2F2E41"/>
<path d="M276.982 120.518L261.599 125.743C261.599 125.743 247.667 133.87 253.762 135.611C259.858 137.352 265.082 130.387 265.082 130.387L278.433 126.904L276.982 120.518Z" fill="#FFB9B9"/>
<path d="M235.745 106.747C233.919 107.998 232.465 109.712 231.082 111.441C228.273 114.954 225.521 119.151 226.213 123.596C226.476 125.284 227.226 126.855 227.649 128.51C228.219 130.745 228.181 133.083 228.14 135.388C228.174 136.368 228.053 137.346 227.78 138.288C227.374 139.206 226.896 140.09 226.35 140.932C224.952 143.536 224.918 146.629 224.917 149.585C224.85 150.579 224.985 151.578 225.315 152.519C225.696 153.407 226.407 154.104 226.996 154.871C227.973 156.166 228.625 157.677 228.897 159.277C229.169 160.876 229.053 162.517 228.56 164.063C229.318 164.066 230.06 163.853 230.701 163.449C231.342 163.045 231.854 162.467 232.178 161.782C232.278 162.518 232.215 163.268 231.992 163.977C231.769 164.686 231.392 165.337 230.888 165.884C234.211 164.896 237.772 163.231 238.985 159.984C239.341 158.881 239.542 157.734 239.581 156.575C240.227 148.43 240.595 139.981 237.674 132.35C236.739 129.909 235.467 127.546 235.154 124.951C234.841 122.356 235.798 119.357 238.183 118.285C238.238 118.949 238.533 119.571 239.013 120.034C239.544 120.428 240.525 120.181 240.535 119.52L241.686 121.123C242.128 120.906 242.505 120.578 242.78 120.169L243.569 121.136L245.249 119.914L246.707 121.487C247.268 121.167 247.716 120.68 247.987 120.094C248.3 120.562 248.688 121.077 249.25 121.128C250.472 121.239 250.725 119.298 251.793 118.693C252.187 118.519 252.631 118.492 253.044 118.617C253.457 118.742 253.811 119.011 254.043 119.375C254.483 120.124 254.644 121.005 254.496 121.862C254.054 125.853 250.648 129.495 251.658 133.381C252.226 135.567 254.138 137.319 254.282 139.572C254.397 141.373 253.339 143.077 253.355 144.881C253.374 146.996 254.835 148.792 256.261 150.353C258.8 153.132 261.472 155.78 264.277 158.299L263.41 156.783C263.815 156.751 264.222 156.807 264.602 156.947C264.983 157.087 265.329 157.308 265.617 157.594C265.866 156.723 265.453 155.815 265.063 154.996C262.73 150.096 260.846 144.879 260.565 139.459C260.174 131.925 262.882 124.274 261.166 116.927C260.178 112.814 257.877 109.135 254.61 106.448C253.022 105.141 251.819 104.358 249.762 104.214C247.464 104.014 245.152 104.032 242.857 104.268C240.321 104.509 237.881 105.36 235.745 106.747Z" fill="#FF6584"/>
<path d="M265.082 137.352C265.082 137.352 268.275 137.643 269.726 137.352C271.177 137.062 273.209 135.611 273.209 135.611L284.238 127.484L274.66 128.935C274.66 128.935 276.402 115.584 275.821 115.294C275.241 115.003 303.975 109.489 303.395 118.486C302.814 127.484 286.56 145.189 277.272 148.672L271.177 149.543L265.082 137.352Z" fill="#2F2E41"/>
<path d="M296.359 240.253H159.501V272.455H296.359V240.253Z" fill="#EFF1F4"/>
<path d="M278.497 247.548H176.86V264.656H278.497V247.548Z" fill="#3F3D56"/>
<path d="M200.479 255.727C200.438 255.288 198.498 255.093 195.836 255.203C197.378 253.03 198.272 251.297 197.926 251.024C197.6 250.766 196.266 251.88 194.641 253.689C194.487 251.262 194.131 249.561 193.715 249.561C193.262 249.561 192.879 251.585 192.753 254.367C190.492 252.741 188.666 251.787 188.385 252.142C188.117 252.482 189.339 253.916 191.281 255.632C188.718 256.013 186.912 256.549 186.952 256.98C186.992 257.419 188.933 257.614 191.595 257.505C190.052 259.677 189.159 261.41 189.504 261.683C189.83 261.941 191.165 260.827 192.789 259.018C192.943 261.445 193.3 263.146 193.715 263.146C194.168 263.146 194.552 261.122 194.678 258.34C196.938 259.966 198.764 260.92 199.045 260.565C199.313 260.225 198.091 258.791 196.149 257.075C198.713 256.694 200.519 256.158 200.479 255.727Z" fill="white"/>
<path d="M217.586 255.727C217.546 255.288 215.605 255.093 212.943 255.203C214.486 253.03 215.379 251.297 215.034 251.024C214.708 250.766 213.373 251.88 211.748 253.689C211.595 251.262 211.238 249.561 210.823 249.561C210.369 249.561 209.986 251.585 209.86 254.367C207.6 252.741 205.774 251.787 205.493 252.142C205.225 252.482 206.446 253.916 208.389 255.632C205.825 256.013 204.019 256.549 204.059 256.98C204.1 257.419 206.04 257.614 208.702 257.505C207.159 259.677 206.266 261.41 206.612 261.683C206.938 261.941 208.272 260.827 209.897 259.018C210.05 261.445 210.407 263.146 210.823 263.146C211.276 263.146 211.659 261.122 211.785 258.34C214.046 259.966 215.871 260.92 216.152 260.565C216.421 260.225 215.199 258.791 213.256 257.075C215.82 256.694 217.626 256.158 217.586 255.727Z" fill="white"/>
<path d="M234.693 255.727C234.653 255.288 232.712 255.093 230.05 255.203C231.593 253.03 232.486 251.297 232.141 251.024C231.815 250.766 230.48 251.88 228.856 253.689C228.702 251.262 228.345 249.561 227.93 249.561C227.477 249.561 227.093 251.585 226.967 254.367C224.707 252.741 222.881 251.787 222.6 252.142C222.332 252.482 223.554 253.916 225.496 255.632C222.932 256.013 221.126 256.549 221.166 256.98C221.207 257.419 223.147 257.614 225.809 257.505C224.267 259.677 223.373 261.41 223.719 261.683C224.045 261.941 225.379 260.827 227.004 259.018C227.158 261.445 227.514 263.146 227.93 263.146C228.383 263.146 228.766 261.122 228.892 258.34C231.153 259.966 232.979 260.92 233.26 260.565C233.528 260.225 232.306 258.791 230.364 257.075C232.927 256.694 234.733 256.158 234.693 255.727Z" fill="white"/>
<path d="M251.801 255.727C251.76 255.288 249.82 255.093 247.158 255.203C248.7 253.03 249.594 251.297 249.248 251.024C248.922 250.766 247.588 251.88 245.963 253.689C245.809 251.262 245.453 249.561 245.037 249.561C244.584 249.561 244.201 251.585 244.075 254.367C241.814 252.741 239.988 251.787 239.707 252.142C239.439 252.482 240.661 253.916 242.603 255.632C240.04 256.013 238.234 256.549 238.274 256.98C238.314 257.419 240.255 257.614 242.917 257.505C241.374 259.677 240.481 261.41 240.826 261.683C241.152 261.941 242.487 260.827 244.111 259.018C244.265 261.445 244.622 263.146 245.037 263.146C245.491 263.146 245.874 261.122 246 258.34C248.26 259.966 250.086 260.92 250.367 260.565C250.635 260.225 249.413 258.791 247.471 257.075C250.035 256.694 251.841 256.158 251.801 255.727Z" fill="white"/>
<path d="M268.908 255.727C268.868 255.288 266.927 255.093 264.265 255.203C265.808 253.03 266.701 251.297 266.356 251.024C266.03 250.766 264.695 251.88 263.07 253.689C262.917 251.262 262.56 249.561 262.145 249.561C261.691 249.561 261.308 251.585 261.182 254.367C258.922 252.741 257.096 251.787 256.815 252.142C256.547 252.482 257.768 253.916 259.711 255.632C257.147 256.013 255.341 256.549 255.381 256.98C255.422 257.419 257.362 257.614 260.024 257.505C258.481 259.677 257.588 261.41 257.934 261.683C258.26 261.941 259.594 260.827 261.219 259.018C261.372 261.445 261.729 263.146 262.145 263.146C262.598 263.146 262.981 261.122 263.107 258.34C265.368 259.966 267.193 260.92 267.474 260.565C267.743 260.225 266.521 258.791 264.578 257.075C267.142 256.694 268.948 256.158 268.908 255.727Z" fill="white"/>
<path d="M215.74 226.458C215.74 226.458 214.289 245.615 221.255 246.486C228.221 247.356 221.835 224.717 221.835 224.717L215.74 226.458Z" fill="#FFB9B9"/>
<path d="M219.513 148.092L217.481 148.672C217.481 148.672 209.064 216.01 214.579 229.071C214.579 229.071 220.384 225.878 223.286 226.458L227.93 171.602L219.513 148.092Z" fill="#2F2E41"/>
</g>
<defs>
<clipPath id="clip0">
<rect width="483.03" height="400" fill="white"/>
</clipPath>
</defs>
</svg>
