<svg width="452" height="400" viewBox="0 0 452 400" fill="none" xmlns="http://www.w3.org/2000/svg">
<g clip-path="url(#clip0)">
<path opacity="0.1" d="M202.242 154.763C184.598 149.052 165.944 144.265 146.879 144.759C118.85 145.487 91.9011 158.548 78.6098 177.853C67.3749 194.212 65.8753 213.438 60.9711 231.629C54.9287 254.04 43.4593 275.308 31.2182 296.107C24.6434 307.278 17.7071 318.684 16.5641 330.959C14.9961 348.002 25.3224 365.04 41.6031 376.46C57.8839 387.881 79.5476 393.967 101.314 395.389C112.896 396.141 125 395.56 135.312 391.388C146.219 386.992 154.196 378.947 165.147 374.599C175.298 370.574 187.129 370.057 198.515 370.648C213.261 371.394 227.865 373.896 242.018 378.102C257.889 382.85 272.636 389.683 288.472 394.5C304.308 399.316 322.01 402.042 338.238 398.168C353.473 394.534 365.558 385.575 376.456 376.5C394.017 361.911 410.347 345.9 425.278 328.629C435.121 317.204 444.29 305.139 448.686 291.789C457.083 266.261 445.833 237.358 420.662 219.778C399.809 205.207 371.756 198.774 344.285 194.866C319.231 191.266 290.245 190.91 267.219 181.741C245.257 172.973 225.278 162.217 202.242 154.763Z" fill="#1B487E"/>
<path opacity="0.1" d="M427.144 241.755C433.379 241.755 438.433 241.061 438.433 240.206C438.433 239.351 433.379 238.658 427.144 238.658C420.91 238.658 415.856 239.351 415.856 240.206C415.856 241.061 420.91 241.755 427.144 241.755Z" fill="#1B487E"/>
<path opacity="0.1" d="M383.9 246.141C390.134 246.141 395.189 245.448 395.189 244.593C395.189 243.737 390.134 243.044 383.9 243.044C377.665 243.044 372.611 243.737 372.611 244.593C372.611 245.448 377.665 246.141 383.9 246.141Z" fill="#1B487E"/>
<path opacity="0.1" d="M332.962 240.206C339.197 240.206 344.251 239.513 344.251 238.658C344.251 237.802 339.197 237.109 332.962 237.109C326.728 237.109 321.673 237.802 321.673 238.658C321.673 239.513 326.728 240.206 332.962 240.206Z" fill="#1B487E"/>
<path opacity="0.1" d="M401.207 258.182C405.639 258.182 409.232 257.688 409.232 257.078C409.232 256.468 405.639 255.974 401.207 255.974C396.774 255.974 393.181 256.468 393.181 257.078C393.181 257.688 396.774 258.182 401.207 258.182Z" fill="#1B487E"/>
<path opacity="0.1" d="M356.326 257.078C360.758 257.078 364.351 256.584 364.351 255.974C364.351 255.364 360.758 254.87 356.326 254.87C351.893 254.87 348.3 255.364 348.3 255.974C348.3 256.584 351.893 257.078 356.326 257.078Z" fill="#1B487E"/>
<path d="M383.656 244.241C383.656 244.241 399.492 192.336 381.179 171.547C367.502 155.994 351.929 157.869 344.969 159.779C343.167 160.259 341.491 161.124 340.057 162.316C338.623 163.508 337.466 164.998 336.665 166.681C334.222 171.932 334.672 180.456 351.856 190.406C380.632 207.068 382.425 229.924 382.425 229.924L383.656 244.241Z" fill="#1B487E"/>
<path d="M347.445 167.141C347.445 167.141 394.124 181.736 383.656 244.241" stroke="#565987" stroke-miterlimit="10"/>
<path d="M374.702 172.372C374.702 172.372 368.274 176.705 370.306 183.211" stroke="#565987" stroke-miterlimit="10"/>
<path d="M352.13 176.226C352.13 176.226 356.038 172.23 360.839 174.433" stroke="#565987" stroke-miterlimit="10"/>
<path d="M370.579 196.327C370.579 196.327 377.477 192.829 379.259 197.211" stroke="#565987" stroke-miterlimit="10"/>
<path d="M387.651 203.624C387.651 203.624 382.469 203.214 382.376 205.691" stroke="#565987" stroke-miterlimit="10"/>
<path d="M384.296 244.656C384.296 244.656 365.734 206.931 360.658 207.757C358.216 208.148 357.122 210.531 356.619 212.92C355.994 216.012 356.347 219.222 357.63 222.103C360.263 228.141 367.331 239.605 384.296 244.656Z" fill="#1B487E"/>
<path d="M360.795 214.918C360.795 214.918 380.261 243.142 384.022 244.383" stroke="#565987" stroke-miterlimit="10"/>
<path d="M359.007 219.324H363.55" stroke="#565987" stroke-miterlimit="10"/>
<path d="M364.449 229.65L371.571 229.953" stroke="#565987" stroke-miterlimit="10"/>
<path d="M368.782 221.39L368.01 225.098" stroke="#565987" stroke-miterlimit="10"/>
<path d="M376.353 232.679L376.216 236.049" stroke="#565987" stroke-miterlimit="10"/>
<path d="M383.749 244.656C383.749 244.656 402.31 206.931 407.386 207.757C409.828 208.148 410.922 210.531 411.425 212.92C412.051 216.012 411.697 219.222 410.414 222.103C407.781 228.141 400.713 239.605 383.749 244.656Z" fill="#1B487E"/>
<path d="M407.249 214.918C407.249 214.918 387.783 243.142 384.022 244.383" stroke="#565987" stroke-miterlimit="10"/>
<path d="M409.037 219.324H404.494" stroke="#565987" stroke-miterlimit="10"/>
<path d="M403.595 229.65L396.473 229.953" stroke="#565987" stroke-miterlimit="10"/>
<path d="M399.262 221.39L400.034 225.098" stroke="#565987" stroke-miterlimit="10"/>
<path d="M391.686 232.679L391.828 236.049" stroke="#565987" stroke-miterlimit="10"/>
<path d="M351.905 253.468C351.401 253.055 351.034 252.5 350.85 251.876C350.768 251.561 350.797 251.228 350.931 250.932C351.066 250.636 351.297 250.395 351.588 250.249C352.267 249.99 352.989 250.459 353.541 250.938C354.093 251.417 354.719 251.949 355.437 251.851C355.068 251.516 354.792 251.091 354.636 250.618C354.481 250.144 354.45 249.639 354.548 249.15C354.578 248.947 354.662 248.757 354.792 248.598C355.168 248.198 355.852 248.373 356.301 248.686C357.733 249.697 358.133 251.641 358.143 253.39C358.213 252.741 358.213 252.086 358.143 251.436C358.115 251.113 358.167 250.787 358.294 250.488C358.42 250.189 358.619 249.926 358.871 249.722C359.21 249.536 359.593 249.445 359.979 249.458C360.299 249.412 360.625 249.435 360.935 249.523C361.246 249.611 361.534 249.764 361.782 249.971C362.324 250.557 362.182 251.539 361.709 252.183C361.176 252.774 360.546 253.269 359.848 253.649C359.312 253.965 358.856 254.4 358.514 254.919C358.476 254.991 358.443 255.066 358.416 255.144H354.382C353.484 254.699 352.651 254.136 351.905 253.468Z" fill="#1B487E"/>
<path d="M422.572 238.272C422.067 237.861 421.699 237.305 421.517 236.679C421.436 236.365 421.465 236.033 421.599 235.738C421.733 235.443 421.965 235.203 422.255 235.058C422.934 234.799 423.657 235.268 424.209 235.742C424.761 236.215 425.391 236.758 426.109 236.655C425.738 236.321 425.461 235.896 425.305 235.423C425.148 234.949 425.117 234.443 425.215 233.954C425.244 233.751 425.331 233.562 425.464 233.407C425.84 233.006 426.519 233.177 426.969 233.495C428.4 234.501 428.8 236.425 428.81 238.199C428.882 237.549 428.882 236.894 428.81 236.245C428.782 235.921 428.834 235.596 428.961 235.297C429.088 234.998 429.286 234.735 429.538 234.53C429.879 234.349 430.261 234.26 430.647 234.271C430.965 234.221 431.29 234.239 431.6 234.323C431.911 234.407 432.2 234.556 432.449 234.76C432.996 235.341 432.855 236.323 432.376 236.968C431.846 237.569 431.217 238.075 430.515 238.462C429.98 238.779 429.524 239.213 429.181 239.732C429.141 239.804 429.108 239.879 429.084 239.957H425.049C424.152 239.508 423.319 238.941 422.572 238.272Z" fill="#1B487E"/>
<path d="M399.018 253.468C398.515 253.055 398.147 252.5 397.963 251.876C397.882 251.561 397.91 251.228 398.045 250.932C398.179 250.636 398.41 250.395 398.701 250.249C399.38 249.99 400.103 250.459 400.655 250.938C401.207 251.417 401.832 251.949 402.55 251.851C402.181 251.516 401.904 251.092 401.748 250.618C401.591 250.145 401.559 249.639 401.656 249.15C401.69 248.948 401.776 248.757 401.905 248.598C402.281 248.198 402.965 248.373 403.414 248.686C404.846 249.697 405.246 251.641 405.256 253.39C405.334 252.741 405.342 252.086 405.28 251.436C405.252 251.113 405.304 250.787 405.431 250.488C405.558 250.189 405.756 249.926 406.008 249.722C406.347 249.536 406.73 249.445 407.117 249.458C407.437 249.412 407.762 249.435 408.073 249.523C408.383 249.611 408.672 249.764 408.92 249.971C409.462 250.557 409.32 251.539 408.846 252.183C408.313 252.774 407.684 253.269 406.985 253.649C406.45 253.965 405.994 254.4 405.652 254.919C405.613 254.991 405.581 255.066 405.554 255.144H401.519C400.613 254.701 399.772 254.137 399.018 253.468Z" fill="#1B487E"/>
<path d="M332.229 222.753C332.229 222.753 330.715 224.731 332.928 227.716C335.141 230.7 336.958 233.226 336.225 235.087C336.225 235.087 332.889 229.543 330.173 229.465C327.457 229.386 329.24 226.089 332.229 222.753Z" fill="#1B487E"/>
<path opacity="0.1" d="M332.229 222.753C332.096 222.943 331.99 223.152 331.917 223.373C329.269 226.485 327.858 229.391 330.403 229.465C332.776 229.533 335.624 233.773 336.303 234.838C336.303 234.921 336.254 235.004 336.225 235.082C336.225 235.082 332.889 229.538 330.173 229.46C327.457 229.382 329.24 226.089 332.229 222.753Z" fill="black"/>
<path d="M329.416 225.274C329.416 225.972 329.494 226.534 329.592 226.534C329.689 226.534 329.763 225.972 329.763 225.274C329.763 224.575 329.665 224.907 329.572 224.907C329.479 224.907 329.416 224.58 329.416 225.274Z" fill="#FFD037"/>
<path d="M328.449 226.104C329.059 226.441 329.597 226.641 329.641 226.558C329.684 226.475 329.23 226.133 328.62 225.801C328.009 225.469 328.248 225.708 328.199 225.801C328.151 225.894 327.838 225.772 328.449 226.104Z" fill="#FFD037"/>
<path d="M340.216 222.753C340.216 222.753 341.73 224.731 339.517 227.716C337.305 230.7 335.487 233.226 336.225 235.087C336.225 235.087 339.556 229.543 342.272 229.465C344.988 229.386 343.205 226.089 340.216 222.753Z" fill="#1B487E"/>
<path opacity="0.1" d="M340.216 222.753C340.35 222.943 340.455 223.152 340.529 223.373C343.176 226.485 344.588 229.391 342.043 229.465C339.669 229.533 336.821 233.773 336.142 234.838C336.165 234.921 336.192 235.002 336.225 235.082C336.225 235.082 339.556 229.538 342.272 229.46C344.988 229.382 343.205 226.089 340.216 222.753Z" fill="black"/>
<path d="M343.029 225.274C343.029 225.972 342.951 226.534 342.854 226.534C342.756 226.534 342.683 225.972 342.683 225.274C342.683 224.575 342.78 224.907 342.873 224.907C342.966 224.907 343.029 224.58 343.029 225.274Z" fill="#FFD037"/>
<path d="M343.997 226.104C343.386 226.441 342.849 226.641 342.805 226.558C342.761 226.475 343.215 226.133 343.826 225.801C344.436 225.469 344.197 225.708 344.246 225.801C344.295 225.894 344.607 225.772 343.997 226.104Z" fill="#FFD037"/>
<path d="M342.546 234.828C342.546 234.828 338.321 234.701 337.046 233.792C335.771 232.884 330.539 231.8 330.207 233.255C329.875 234.711 323.857 240.494 328.624 240.533C333.392 240.573 339.723 239.791 340.993 239.014C342.263 238.238 342.546 234.828 342.546 234.828Z" fill="#A8A8A8"/>
<path opacity="0.2" d="M328.556 240.025C333.328 240.064 339.649 239.283 340.924 238.506C341.901 237.92 342.277 235.8 342.39 234.823H342.526C342.526 234.823 342.263 238.242 340.988 239.009C339.713 239.776 333.397 240.568 328.62 240.528C327.242 240.528 326.768 240.04 326.793 239.302C327.003 239.747 327.53 240.02 328.556 240.025Z" fill="black"/>
<path opacity="0.1" d="M63.008 40.128C68.8433 40.128 73.5737 35.3976 73.5737 29.5623C73.5737 23.7271 68.8433 18.9967 63.008 18.9967C57.1728 18.9967 52.4424 23.7271 52.4424 29.5623C52.4424 35.3976 57.1728 40.128 63.008 40.128Z" fill="#1B487E"/>
<path opacity="0.1" d="M245.75 23.4516C251.586 23.4516 256.316 18.7211 256.316 12.8859C256.316 7.05065 251.586 2.32025 245.75 2.32025C239.915 2.32025 235.185 7.05065 235.185 12.8859C235.185 18.7211 239.915 23.4516 245.75 23.4516Z" fill="#1B487E"/>
<path opacity="0.1" d="M413.369 65.1915C419.205 65.1915 423.935 60.4611 423.935 54.6258C423.935 48.7906 419.205 44.0602 413.369 44.0602C407.534 44.0602 402.804 48.7906 402.804 54.6258C402.804 60.4611 407.534 65.1915 413.369 65.1915Z" fill="#1B487E"/>
<path opacity="0.1" d="M17.7071 144.148C27.4865 144.148 35.4142 136.22 35.4142 126.441C35.4142 116.662 27.4865 108.734 17.7071 108.734C7.92774 108.734 0 116.662 0 126.441C0 136.22 7.92774 144.148 17.7071 144.148Z" fill="#1B487E"/>
<path opacity="0.1" d="M34.6815 231.585C44.4609 231.585 52.3886 223.657 52.3886 213.878C52.3886 204.098 44.4609 196.17 34.6815 196.17C24.9022 196.17 16.9744 204.098 16.9744 213.878C16.9744 223.657 24.9022 231.585 34.6815 231.585Z" fill="#1B487E"/>
<path opacity="0.1" d="M366.315 154.46C376.094 154.46 384.022 146.532 384.022 136.753C384.022 126.973 376.094 119.046 366.315 119.046C356.536 119.046 348.608 126.973 348.608 136.753C348.608 146.532 356.536 154.46 366.315 154.46Z" fill="#1B487E"/>
<path d="M219.891 169.91C219.265 169.969 218.63 169.939 218.01 170.037C216.968 170.244 215.975 170.644 215.079 171.214C210.634 173.745 206.438 177.223 204.597 181.99C204.445 182.283 204.397 182.619 204.46 182.943C204.569 183.21 204.748 183.442 204.978 183.617L206.707 185.19C206.925 185.416 207.186 185.599 207.474 185.727C207.94 185.849 208.432 185.834 208.89 185.683C213.643 184.594 218.694 183.338 222.03 179.782C223.613 178.097 225.073 175.777 227.403 175.713C228.38 175.713 229.294 176.089 230.256 176.202C231.218 176.314 232.376 175.904 232.606 174.966C232.68 174.499 232.626 174.021 232.449 173.583L231.013 168.801C230.622 167.492 226.68 167.424 225.366 167.658C223.364 168.005 222.015 169.715 219.891 169.91Z" fill="#65617D"/>
<path d="M236.811 196.849C236.743 198.486 236.875 200.142 236.606 201.763C236.37 203.042 235.961 204.283 235.39 205.451C234.511 207.33 233.395 209.088 232.068 210.683C230.832 212.148 229.352 213.526 227.521 214.102C225.689 214.679 223.437 214.263 222.294 212.72C221.361 211.464 221.317 209.789 221.385 208.221C221.551 204.367 222.157 200.459 223.886 197.011C224.629 195.545 225.572 194.148 226.329 192.668C227.911 189.596 228.815 185.952 231.546 183.832C233.259 184.623 235.091 185.126 236.968 185.321C237.695 185.4 239.776 185.448 240.021 186.381C240.187 187.012 238.819 188.775 238.555 189.395C237.512 191.749 236.921 194.277 236.811 196.849Z" fill="#65617D"/>
<path d="M217.448 126.402C218.034 127.897 218.777 129.362 218.914 130.954C219.011 131.931 218.914 132.908 218.914 133.885C218.996 135.224 219.219 136.55 219.578 137.842L222.299 148.979C222.704 150.645 223.11 152.354 222.9 154.054C222.758 155.188 222.348 156.287 222.352 157.425C222.404 158.288 222.542 159.144 222.763 159.979C223.278 162.562 223.137 165.232 222.352 167.746C222.272 167.936 222.243 168.143 222.269 168.347C222.338 168.665 222.646 168.86 222.924 169.011C225.853 170.614 229.046 171.678 232.352 172.152C235.335 165.056 237.419 157.614 238.555 150C239.249 145.389 239.586 140.719 240.475 136.142C240.495 135.878 240.607 135.629 240.792 135.439C241.124 135.16 241.628 135.336 242.018 135.522C247.01 137.922 251.813 140.698 256.384 143.826C257.992 141.744 259.122 139.334 259.695 136.768C260.269 134.201 260.27 131.539 259.701 128.971C259.127 126.757 258.308 124.614 257.259 122.582C256.141 120.11 254.748 117.772 253.107 115.612C249.482 111.069 244.168 108.167 238.697 106.199C235.37 104.997 231.946 104.108 228.527 103.2C226.612 102.687 223.403 101.016 221.542 102.315C219.588 103.668 218.288 107.024 217.487 109.154C216.498 111.796 215.96 114.584 215.895 117.404C215.814 120.477 216.342 123.534 217.448 126.402Z" fill="#3F3D56"/>
<path d="M256.717 139.83C255.696 140.944 256.555 142.722 256.36 144.226C256.232 144.906 255.989 145.558 255.642 146.156L250.967 155.334C250.186 156.711 249.601 158.191 249.228 159.73C248.588 163.042 249.902 166.764 248.222 169.69C247.68 170.633 246.84 171.444 246.615 172.509C246.449 173.285 246.615 174.096 246.532 174.883C246.42 175.806 245.926 176.636 245.653 177.525C245.439 178.38 245.287 179.248 245.198 180.124C244.606 183.86 242.65 187.243 239.708 189.62C238.022 191.049 235.858 191.785 233.651 191.681C231.472 191.496 229.308 190.016 228.864 187.876C228.712 187.148 228.742 186.337 228.287 185.746C227.643 184.901 226.285 184.867 225.664 184.003L228.068 180.046C228.815 178.82 229.577 177.54 229.699 176.109C229.846 174.355 229.001 172.606 229.303 170.872C229.562 169.383 230.632 168.142 230.954 166.667C231.355 164.835 230.554 162.984 230.119 161.157C229.054 156.658 230.246 151.969 231.433 147.479C233.011 141.54 234.628 135.507 237.822 130.256C244.197 133.69 250.059 136.987 256.717 139.83Z" fill="#3F3D56"/>
<path d="M256.775 46.7858C257.156 47.8214 256.951 48.9693 256.878 50.0684C256.707 52.5107 257.224 54.9531 257.107 57.4296C256.99 59.9062 256.228 62.2704 255.7 64.6786C254.201 71.5514 254.562 78.7124 253.204 85.6145C251.529 94.1627 247.245 102.125 246.4 110.8C246.131 113.555 246.165 116.505 244.656 118.831C235.687 114.882 227.208 109.902 219.392 103.991C221.112 91.2368 222.812 78.4193 222.582 65.5529C222.471 64.0019 222.579 62.4429 222.904 60.9222C223.312 59.6449 223.897 58.4313 224.643 57.3173C226.534 54.2448 228.615 51.2944 230.691 48.3489C232.019 46.4634 233.455 44.4851 235.575 43.601C237.695 42.7169 240.206 43.1125 242.517 43.5326C245.298 44.0406 248.075 44.5486 250.85 45.0567C252.584 45.3742 256.033 44.7684 256.775 46.7858Z" fill="#1B487E"/>
<path d="M189.889 95.6575C188.749 94.5175 187.506 93.4857 186.176 92.5752C187.91 90.465 187.568 87.4121 187.993 84.7108C188.341 82.9562 188.87 81.2423 189.571 79.5965C189.747 79.1325 189.996 78.6196 190.48 78.4975C190.777 78.4607 191.078 78.5081 191.349 78.6342C192.815 79.152 195.872 79.1227 197.011 80.0704C198.383 81.2231 197.128 83.6362 196.61 85.0772C196.244 86.0444 190.616 96.3902 189.889 95.6575Z" fill="#BE6F72"/>
<path d="M194.143 186.88C194.879 188.071 195.36 189.401 195.555 190.787C195.672 192.175 195.164 193.694 193.982 194.427C192.8 195.159 191.105 194.915 189.698 194.475C186.714 193.505 183.969 191.916 181.641 189.811C179.314 187.707 177.457 185.135 176.192 182.264C175.747 181.238 175.361 180.149 174.575 179.357C173.991 178.844 173.342 178.409 172.646 178.063C170.726 176.978 168.875 175.552 167.986 173.53C167.096 171.507 167.497 168.806 169.339 167.605C169.913 167.273 170.547 167.059 171.204 166.975C171.862 166.891 172.529 166.939 173.168 167.116C174.441 167.478 175.66 168.008 176.793 168.694C178.688 169.725 181.003 170.614 182.654 171.986C184.12 173.193 185.434 174.824 186.684 176.246C188.116 177.881 189.458 179.593 190.704 181.375C191.105 181.897 194.48 186.406 194.143 186.88Z" fill="#65617D"/>
<path d="M158.338 176.627C158.172 179.084 157.738 181.517 157.044 183.88C156.648 185.209 156.125 186.591 155.026 187.436C154.097 188.039 153.043 188.425 151.944 188.565C151.561 188.669 151.16 188.694 150.767 188.638C150.093 188.496 149.614 187.915 149.199 187.363C147.567 185.204 145.98 182.923 145.291 180.305C144.314 176.509 145.291 172.44 146.986 168.894C147.595 167.464 148.484 166.171 149.599 165.089C150.978 163.956 152.634 163.212 154.396 162.935C156.199 162.573 158.411 161.801 158.543 163.995C158.736 168.206 158.668 172.424 158.338 176.627Z" fill="#65617D"/>
<path d="M185.365 84.8134C188.736 86.5572 192.478 88.7749 193.181 92.5019C193.616 94.7782 192.78 97.1082 192.917 99.4236C193.039 101.461 193.894 103.429 193.787 105.461C193.673 106.421 193.509 107.375 193.298 108.319C193.01 110.121 193.181 111.958 193.108 113.78C192.946 117.883 191.574 121.83 190.91 125.879C190.439 128.771 190.329 131.709 190.582 134.628C190.743 136.513 191.071 138.389 191.071 140.284C191.071 141.649 190.958 143.012 190.734 144.358C190.079 148.588 188.76 152.688 186.826 156.506C184.476 161.132 184.809 167.101 185.058 172.284C185.166 172.998 185.075 173.729 184.794 174.394C184.178 175.513 182.645 175.674 181.375 175.567C176.665 175.136 172.297 172.924 169.163 169.383C168.706 168.937 168.395 168.363 168.274 167.736C168.166 166.691 169.006 165.831 169.612 164.967C171.674 162.036 171.151 158.065 171.395 154.465C171.573 151.845 172.2 149.276 173.246 146.869C173.852 145.477 174.609 144.104 174.746 142.59C174.873 141.178 174.443 139.781 174.018 138.433L172.553 133.783C170.281 126.558 167.995 119.29 164.556 112.544C162.3 114.012 160.685 116.281 160.038 118.894C158.758 123.495 160.58 128.634 158.836 133.06C158.548 133.673 158.308 134.309 158.118 134.96C158.016 135.522 157.976 136.094 158.001 136.665C158.046 141.426 158.337 146.182 158.871 150.913C158.897 151.63 159.098 152.329 159.457 152.95C159.745 153.366 160.165 153.673 160.473 154.069C161.328 155.178 161.166 156.731 160.961 158.114L159.984 164.649C159.967 164.981 159.857 165.301 159.667 165.572C159.437 165.796 159.149 165.951 158.836 166.022C155.733 166.986 152.46 167.285 149.233 166.901C148.281 166.789 147.416 166.149 146.62 165.612C146.537 164.635 147.753 163.985 147.797 163.013C147.75 162.437 147.482 161.901 147.05 161.518C145.233 159.467 143.064 157.288 143.083 154.548C143.083 153.83 143.254 153.112 143.23 152.394C143.166 150.552 141.896 148.974 141.452 147.201C140.905 145.008 141.632 142.732 141.911 140.489C142.292 137.471 141.843 134.413 141.422 131.399L139.786 120.34C139.596 118.623 139.256 116.927 138.77 115.27C138.154 113.638 137.431 112.049 136.606 110.512C135.043 107.337 133.758 104.035 132.479 100.742C132.072 99.848 131.816 98.8923 131.721 97.9142C131.648 96.2388 132.513 94.6561 133.587 93.3665C135.6 90.9701 138.347 89.3047 141.403 88.6284C141.914 88.4859 142.45 88.4642 142.971 88.5649C143.409 88.7101 143.82 88.9263 144.187 89.2048C147.963 91.6745 152.26 93.2362 156.74 93.7676C161.221 94.299 165.764 93.7855 170.013 92.2675C170.501 92.6387 171.405 92.4775 171.967 92.2137C173.535 91.4957 174.814 90.2989 176.192 89.2829C178.756 87.3388 182.215 85.4924 185.365 84.8134Z" fill="#3F3D56"/>
<path d="M84.1198 210.258C84.3791 211.006 84.7695 211.703 85.2726 212.314C87.0408 214.62 89.5076 216.461 90.6458 219.153C90.8851 219.729 91.061 220.335 91.2808 220.921C91.9493 222.69 93.0391 224.27 94.4558 225.523C95.5365 226.42 96.7108 227.198 97.9582 227.843C100.117 229.02 102.452 230.085 104.904 230.021C105.397 230.011 105.888 229.952 106.37 229.846C107.133 229.687 107.869 229.417 108.553 229.045C110.131 228.175 111.484 226.475 111.171 224.702C111.108 224.364 111.002 224.036 110.854 223.725C110.595 223.231 110.296 222.759 109.96 222.313C109.134 221.17 108.284 219.998 107.078 219.265C105.72 218.435 104.01 218.23 102.789 217.204C102.307 216.768 101.891 216.264 101.553 215.709C100.447 214.008 99.6218 212.139 99.111 210.175C98.7397 208.709 98.4906 207.102 97.4209 206.028C96.3511 204.953 94.8808 204.709 93.4545 204.465C92.9725 204.365 92.4812 204.318 91.9891 204.323C91.2906 204.347 90.5676 204.548 89.9131 204.22C89.2585 203.893 89.0387 203.429 88.2474 203.493C87.6175 203.577 87.0238 203.836 86.5328 204.24C84.6766 205.613 83.4457 208.055 84.1198 210.258Z" fill="#3F3D56"/>
<path d="M101.475 212.48C101.793 214.136 102.281 215.9 103.561 216.979C104.377 217.683 105.515 218.122 105.92 219.114C106.326 220.106 105.803 221.351 105.129 222.26C104.268 223.409 103.202 224.387 101.983 225.147C100.948 225.786 99.7118 226.275 98.5248 225.992C97.5479 225.762 96.7761 225.059 96.0483 224.38C94.3777 222.831 92.668 221.224 91.7302 219.148C90.7532 216.96 90.7044 214.425 89.6395 212.27C89.0192 211.015 88.0618 209.916 87.6856 208.568C87.517 208.08 87.517 207.551 87.6856 207.063C87.8678 206.715 88.1433 206.423 88.4815 206.222C88.8197 206.021 89.2071 205.919 89.6004 205.925C90.3869 205.951 91.1626 206.117 91.8914 206.414C94.0966 207.2 96.3539 207.831 98.6469 208.304C99.5604 208.475 100.112 208.47 100.601 209.354C101.052 210.345 101.347 211.399 101.475 212.48Z" fill="#FBBEBE"/>
<path d="M107.141 226.48C106.779 227.034 106.523 227.65 106.384 228.297C106.269 228.8 106.251 229.321 106.331 229.831C107.094 229.673 107.83 229.403 108.514 229.03C110.092 228.16 111.445 226.461 111.132 224.687C111.069 224.349 110.962 224.021 110.815 223.71C110.582 223.658 110.339 223.668 110.111 223.739C109.883 223.81 109.677 223.94 109.515 224.116C108.606 224.776 107.805 225.573 107.141 226.48Z" fill="#FBBEBE"/>
<path d="M89.6346 189.366C89.4221 189.823 89.3589 190.336 89.4539 190.831C89.6786 191.808 90.68 192.37 91.5836 192.815L100.176 197.015C100.772 197.291 101.352 197.599 101.915 197.939C103.38 198.837 104.533 200.107 105.784 201.27C107.034 202.433 108.426 203.522 110.082 203.932C111.735 204.294 113.463 204.068 114.967 203.292C115.777 202.889 116.53 202.378 117.204 201.773C117.788 201.261 118.327 200.701 118.816 200.098C119.236 199.654 119.537 199.111 119.69 198.52C119.852 197.626 119.407 196.747 118.889 196.009C118.591 195.584 118.265 195.179 117.912 194.798C114.654 191.198 109.315 189.332 104.724 188.599C102.897 188.306 101.163 187.622 99.4041 187.065C97.6456 186.508 95.7845 186.088 93.9576 186.347C92.1307 186.606 90.3331 187.656 89.6346 189.366Z" fill="#3F3D56"/>
<path opacity="0.1" d="M89.6346 189.366C89.4221 189.823 89.3589 190.336 89.4539 190.831C89.6786 191.808 90.68 192.37 91.5836 192.815L100.176 197.015C100.772 197.291 101.352 197.599 101.915 197.939C103.38 198.837 104.533 200.107 105.784 201.27C107.034 202.433 108.426 203.522 110.082 203.932C111.735 204.294 113.463 204.068 114.967 203.292C115.777 202.889 116.53 202.378 117.204 201.773C117.788 201.261 118.327 200.701 118.816 200.098C119.236 199.654 119.537 199.111 119.69 198.52C119.852 197.626 119.407 196.747 118.889 196.009C118.591 195.584 118.265 195.179 117.912 194.798C114.654 191.198 109.315 189.332 104.724 188.599C102.897 188.306 101.163 187.622 99.4041 187.065C97.6456 186.508 95.7845 186.088 93.9576 186.347C92.1307 186.606 90.3331 187.656 89.6346 189.366Z" fill="black"/>
<path d="M111.137 192.048C111.798 192.79 112.341 193.628 112.749 194.534C113.116 195.127 113.247 195.837 113.115 196.522C112.923 196.983 112.616 197.387 112.222 197.694L111.367 198.486C111.109 198.754 110.808 198.979 110.478 199.15C110.01 199.325 109.511 199.4 109.012 199.37C107.864 199.37 106.629 199.37 105.696 198.681C104.421 197.763 104.191 195.863 104.772 194.402C105.354 192.942 106.57 191.838 107.796 190.851C108.793 190.045 110.439 191.31 111.137 192.048Z" fill="#FBBEBE"/>
<path d="M116.354 197.098C116.196 197.909 116.272 198.748 116.574 199.516C116.789 200.249 116.999 200.982 117.209 201.729C117.209 201.729 117.209 201.729 117.209 201.758C117.793 201.247 118.332 200.686 118.821 200.083C119.241 199.639 119.542 199.097 119.695 198.505C119.856 197.611 119.412 196.732 118.894 195.995C118.596 195.569 118.27 195.165 117.917 194.783C117.688 195.081 117.487 195.374 117.321 195.565C116.894 196.002 116.564 196.524 116.354 197.098Z" fill="#FBBEBE"/>
<path d="M93.9087 160.693C92.8976 164.942 93.3275 169.387 93.8648 173.725C94.2751 177.027 94.7343 180.446 93.7573 183.626C93.3958 184.813 92.8243 186.02 93.0441 187.246C93.4594 189.556 96.2436 190.445 98.5492 190.88C99.2144 191.049 99.9056 191.091 100.586 191.002C101.269 190.816 101.903 190.483 102.442 190.025C105.72 187.643 108.209 184.334 109.589 180.525C110.463 177.975 110.741 175.264 111.01 172.582C111.46 168.069 111.914 163.501 111.254 159.017C111.059 157.698 110.766 156.394 110.644 155.065C110.49 152.755 110.618 150.434 111.025 148.154C111.866 142.505 113.14 136.93 114.835 131.477C110.183 132.095 105.455 131.241 101.314 129.035C102.115 129.465 101.197 136.318 101.099 137.28C100.803 140.149 100.285 142.991 99.5506 145.78C98.1877 150.992 95.1446 155.515 93.9087 160.693Z" fill="#3F3D56"/>
<path opacity="0.1" d="M93.9087 160.693C92.8976 164.942 93.3275 169.387 93.8648 173.725C94.2751 177.027 94.7343 180.446 93.7573 183.626C93.3958 184.813 92.8243 186.02 93.0441 187.246C93.4594 189.556 96.2436 190.445 98.5492 190.88C99.2144 191.049 99.9056 191.091 100.586 191.002C101.269 190.816 101.903 190.483 102.442 190.025C105.72 187.643 108.209 184.334 109.589 180.525C110.463 177.975 110.741 175.264 111.01 172.582C111.46 168.069 111.914 163.501 111.254 159.017C111.059 157.698 110.766 156.394 110.644 155.065C110.49 152.755 110.618 150.434 111.025 148.154C111.866 142.505 113.14 136.93 114.835 131.477C110.183 132.095 105.455 131.241 101.314 129.035C102.115 129.465 101.197 136.318 101.099 137.28C100.803 140.149 100.285 142.991 99.5506 145.78C98.1877 150.992 95.1446 155.515 93.9087 160.693Z" fill="black"/>
<path d="M119.27 135.79C121.224 141.452 120.794 147.636 119.949 153.566C119.104 159.496 117.859 165.426 118.225 171.4C118.367 173.745 118.748 176.153 118.064 178.395C117.684 179.489 117.181 180.536 116.564 181.516L100.977 208.47C100.58 209.17 100.014 209.759 99.332 210.186C98.6497 210.612 97.8721 210.862 97.0692 210.912C95.4035 211.03 93.7671 210.483 92.2138 209.872C91.1816 209.53 90.2224 208.998 89.3855 208.304C88.9706 207.958 88.6455 207.518 88.438 207.019C88.2304 206.521 88.1466 205.979 88.1936 205.442C88.8921 200.762 89.9424 195.97 90.719 191.276C91.2473 188.091 92.3993 185.041 94.109 182.303C95.3156 180.349 96.8005 178.595 97.8409 176.563C100.83 170.741 99.7948 163.638 97.4892 157.513C95.1837 151.387 91.7497 145.701 89.9179 139.439C89.3749 137.697 89.0645 135.89 88.9947 134.066C88.9721 132.183 89.3212 130.313 90.0219 128.565C90.7226 126.816 91.7613 125.223 93.0783 123.877C93.4627 123.441 93.9472 123.106 94.49 122.9C95.1246 122.752 95.7857 122.764 96.4146 122.934C105.095 124.619 116.403 127.428 119.27 135.79Z" fill="#3F3D56"/>
<path d="M259.379 51.27C259.662 53.4095 258.89 55.5735 257.791 57.4248C253.634 64.3611 244.05 67.4287 236.64 64.1999C233.587 62.8664 231.003 60.6682 228.473 58.4994C227.623 57.7667 226.739 56.9998 226.309 55.9643C225.552 54.1325 226.465 51.949 227.955 50.6399C229.445 49.3308 231.375 48.686 233.294 48.1047C239.63 46.1313 257.869 39.9082 259.379 51.27Z" fill="#FBBEBE"/>
<path d="M255.671 44.4803C261.44 49.1207 269.837 53.5414 276.373 56.9803C278.595 58.1526 281.062 59.4715 281.863 61.865C282.293 63.1448 282.151 64.5369 282.01 65.8851C281.736 68.4789 281.453 71.1118 280.451 73.5199C279.274 76.3384 277.193 78.6635 275.523 81.2231C272.592 85.7073 270.872 90.9926 267.253 94.9541C269.695 103.068 272.367 111.171 273.237 119.593C273.285 119.824 273.259 120.065 273.163 120.281C273.063 120.424 272.933 120.542 272.782 120.628L266.706 124.614C266.043 125.001 265.45 125.496 264.952 126.08C263.877 127.477 264.019 129.44 263.355 131.067C262.991 131.861 262.47 132.573 261.823 133.161C261.177 133.748 260.419 134.199 259.594 134.486C257.933 135.058 256.164 135.245 254.421 135.033C252.201 134.893 250.064 134.141 248.246 132.86C246.698 131.687 245.594 130.041 244.529 128.419C243.74 127.313 243.084 126.118 242.575 124.858C241.926 123.061 241.886 121.102 241.911 119.187C241.927 115.544 242.275 111.909 242.951 108.328C243.235 106.907 243.586 105.505 243.811 104.074C244.26 101.192 244.173 98.2513 244.505 95.3546C244.959 92.0966 245.686 88.8825 246.678 85.7464C247.222 83.8039 247.646 81.83 247.948 79.8359C248.52 76.3286 249.658 72.9435 250.796 69.578L252.75 63.8091C253.165 62.5635 253.585 61.3228 254.079 60.1065C254.997 57.8351 256.179 55.6223 256.492 53.1995C256.839 50.5569 253.986 47.4209 254.948 44.9394C255.026 44.6659 255.451 44.3044 255.671 44.4803Z" fill="#3F3D56"/>
<path d="M280.3 60.5022C281.653 61.1127 282.4 62.5684 282.884 63.9752C283.974 67.1457 284.236 70.5421 283.646 73.8423C283.455 74.672 283.324 75.5144 283.255 76.3628C283.265 77.3463 283.362 78.327 283.543 79.2937C284.032 83.0305 283.543 86.8259 283.705 90.5969C283.871 94.8369 284.794 99.3162 283.016 103.17C281.834 105.73 279.597 107.635 277.389 109.364C269.169 115.77 260.099 121.005 250.44 124.917C252.105 122.914 252.135 119.9 251.026 117.541C249.917 115.182 247.856 113.409 245.653 112.031C248.457 111.408 251.172 110.438 253.737 109.144C258.856 106.546 263.242 102.74 267.575 98.9742C268.214 98.5147 268.712 97.8851 269.011 97.1571C269.451 95.6917 268.24 94.2995 267.399 93.0149C264.854 89.1071 265.445 84.0025 266.51 79.4793C267.697 74.5213 269.441 69.5829 272.621 65.5969C274.604 63.1057 277.193 61.1909 280.3 60.5022Z" fill="#3F3D56"/>
<path d="M250.01 125.039C249.571 125.755 249.001 126.381 248.329 126.885C246.864 127.862 244.852 127.491 243.215 126.798C241.694 126.153 240.291 125.26 239.063 124.155C238.535 123.594 237.912 123.13 237.222 122.787C235.942 122.299 234.154 122.665 233.436 121.488C233.352 121.364 233.311 121.217 233.319 121.068C233.363 120.643 233.919 120.526 234.349 120.501C236.344 120.369 238.279 119.772 240.001 118.757C239.451 118.36 238.98 117.863 238.614 117.292C238.462 117.093 238.379 116.849 238.379 116.598C238.439 116.326 238.589 116.082 238.804 115.905C240.374 114.423 242.35 113.442 244.48 113.087C246.609 112.732 248.796 113.019 250.762 113.912C251.146 114.067 251.482 114.319 251.739 114.644C251.92 114.944 252.041 115.276 252.096 115.621C252.413 116.989 253.561 119.041 253.146 120.423C252.687 122.011 250.953 123.696 250.01 125.039Z" fill="#FBBEBE"/>
<path d="M216.701 118.879C222.777 111.86 225.493 102.623 228.014 93.6889L229.816 87.3388L234.164 72.0447C234.804 69.788 235.444 67.5313 235.868 65.2306C236.596 61.2593 236.665 57.2001 236.621 53.1653C236.559 51.4927 236.176 49.8476 235.492 48.3197C235.067 47.2646 234.862 46.1411 234.515 45.0518C234.074 43.5331 233.414 42.0868 232.557 40.7581C232.318 40.3631 232.02 40.0072 231.672 39.703C231.071 39.2945 230.39 39.0181 229.675 38.8921C228.122 38.4304 226.512 38.1855 224.893 38.1643C223.271 38.2229 221.6 38.7847 220.555 40.0156C219.759 40.9584 219.392 42.1796 218.762 43.2395C218.469 43.6735 218.203 44.1255 217.966 44.5926C217.697 45.3023 217.549 46.0518 217.526 46.8103C217.272 49.8876 217.056 52.9683 216.877 56.0522C216.794 57.4541 216.72 58.8658 216.774 60.2726C216.818 61.3667 216.935 62.456 217.053 63.5453L218.21 74.2136C218.479 76.7194 218.288 79.0641 218.513 81.5748C219.06 87.6368 217.756 93.6987 216.418 99.6483C215.778 102.477 215.118 105.344 213.75 107.903C212.544 110.17 210.737 112.471 211.215 114.996C211.381 115.875 211.826 116.696 211.894 117.585C211.861 118.136 211.915 118.688 212.055 119.221C212.255 119.584 212.564 119.874 212.939 120.05C213.314 120.225 213.735 120.277 214.141 120.198C215.108 120.028 216.001 119.569 216.701 118.879Z" fill="#3F3D56"/>
<path d="M217.443 90.7874C217.629 92.1893 217.487 93.6108 217.556 95.0225C217.709 96.8406 218.036 98.6399 218.533 100.396C219.021 102.35 219.646 104.538 221.371 105.622C221.803 105.847 222.216 106.107 222.607 106.399C222.799 106.55 222.94 106.757 223.011 106.991C223.083 107.225 223.082 107.475 223.007 107.708L221.664 107.483C221.816 107.6 221.942 107.747 222.034 107.916C222.125 108.085 222.18 108.271 222.195 108.462C222.21 108.653 222.184 108.845 222.119 109.026C222.054 109.207 221.952 109.371 221.819 109.51C221.686 109.648 221.526 109.757 221.348 109.829C221.17 109.901 220.979 109.935 220.787 109.928C220.596 109.921 220.408 109.874 220.235 109.789C220.063 109.705 219.911 109.585 219.788 109.437C219.839 109.877 219.797 110.323 219.666 110.746C219.598 110.954 219.468 111.136 219.293 111.267C219.118 111.398 218.907 111.472 218.689 111.479C218.436 111.44 218.196 111.339 217.99 111.186L214.483 109.012C213.432 108.447 212.558 107.601 211.958 106.57L210.424 104.259C210.086 103.814 209.817 103.32 209.628 102.794C209.056 100.84 210.654 98.6714 209.823 96.8298C209.574 96.376 209.281 95.9474 208.949 95.55C207.176 93.1077 207.288 89.786 207.483 86.7575C207.547 85.7366 207.733 84.5252 208.656 84.0807C209.388 83.7241 210.268 84.0416 210.947 84.4861C211.626 84.9306 212.226 85.5168 212.998 85.7806C213.487 85.9467 214.024 85.9662 214.513 86.142C215.196 86.3814 215.831 87.3144 216.291 87.8664C216.94 88.7134 217.339 89.7252 217.443 90.7874Z" fill="#FBBEBE"/>
<path d="M174.639 46.8884C174.224 47.8408 173.641 48.7111 172.919 49.4578C172.556 49.8309 172.111 50.1137 171.619 50.2834C171.127 50.4531 170.602 50.5049 170.086 50.4347C169.002 50.2198 168.205 49.3259 167.487 48.4809C165.612 46.2778 163.711 44.0455 162.451 41.4371C160.527 37.4658 160.219 32.9328 159.94 28.5317C159.872 27.3984 159.813 26.1968 160.356 25.2052C161.044 23.94 162.505 23.3441 163.853 22.841L171.302 20.0567C171.759 19.8404 172.264 19.7478 172.768 19.788C173.935 19.9834 174.365 21.3902 174.682 22.5283C175.251 24.5736 176.195 26.4951 177.467 28.1946C179.137 30.422 182.884 33.4213 180.744 36.2007C178.16 39.5321 176.519 43.1272 174.639 46.8884Z" fill="#BE6F72"/>
<path d="M184.169 34.1784C187.432 37.246 188.536 42.0233 188.379 46.4928C188.223 50.9623 186.982 55.3195 186.274 59.7353C185.566 64.151 185.424 68.8648 187.344 72.924C188.003 74.3161 188.902 75.6057 189.361 77.076C189.746 78.5292 189.877 80.038 189.747 81.5358C189.739 83.1146 189.438 84.6783 188.858 86.1469C187.817 88.4525 185.678 90.0547 183.631 91.5201C179.455 94.5389 175.195 97.6065 170.291 99.1843C166.97 100.254 163.453 100.606 159.975 100.796C157.62 100.984 155.252 100.917 152.911 100.596C148.817 99.9137 145.055 97.922 142.189 94.9199C141.69 94.436 141.278 93.8691 140.973 93.2444C140.675 92.4316 140.531 91.5701 140.548 90.7044C140.431 87.4967 140.45 84.2891 140.607 81.0815C140.696 78.0246 141.117 74.9865 141.862 72.0203C142.795 68.601 144.412 65.3966 145.638 62.0653C149.907 50.4836 149.477 37.3046 155.407 26.4898C156.687 24.1549 158.827 21.6979 161.464 22.0692C161.972 22.0997 162.449 22.3193 162.803 22.6846C163.106 23.1292 163.275 23.6513 163.291 24.1891C163.921 29.4451 164.815 34.8378 167.292 39.5809C168.269 41.442 169.734 44.2751 171.986 44.7734C174.238 45.2716 175.567 43.1223 176.773 41.5983C178.893 38.8035 181.381 36.3077 184.169 34.1784Z" fill="#E3E8F4"/>
<path d="M199.785 26.27C200.451 26.6297 201.072 27.0658 201.636 27.5694C203.102 28.9566 203.639 31.0815 203.629 33.094C203.62 35.1065 203.141 37.0897 202.848 39.0826C202.061 44.4558 202.731 49.956 203.043 55.3976C203.138 56.2762 203.086 57.1645 202.887 58.0256C202.648 58.8462 202.154 59.5692 201.837 60.3654C200.904 62.7198 201.607 65.4064 201.06 67.8781C200.474 70.5109 198.466 72.9044 198.842 75.5764C198.994 76.6217 199.497 77.584 199.712 78.6196C199.927 79.6551 199.741 80.9056 198.847 81.4625C197.953 82.0193 196.654 81.6139 195.589 81.9216C195.156 82.0813 194.735 82.2707 194.329 82.4883C192.683 83.2307 190.719 82.9767 189.097 82.1659C187.508 81.2984 186.079 80.165 184.872 78.815C183.011 76.9099 181.208 74.8241 180.393 72.289C179.201 68.6157 180.261 64.6151 181.555 60.9711C182.85 57.3271 184.393 53.644 184.164 49.7704C184.037 47.6016 183.353 45.5158 182.943 43.3861C182.435 40.4353 182.253 37.4376 182.4 34.447C182.464 32.2587 182.61 30.0019 183.553 28.0236C184.225 26.704 185.218 25.5742 186.44 24.7378C187.662 23.9014 189.075 23.3853 190.548 23.2366C193.967 22.8654 196.898 24.6092 199.785 26.27Z" fill="#3F3D56"/>
<path opacity="0.1" d="M190.548 73.4857C190.582 75.0488 190.863 76.5966 191.378 78.0725C192.253 76.0795 192.355 73.8423 192.473 71.6735C192.961 64.2048 194.617 57.161 196.38 49.9267C195.096 50.9037 194.373 53.346 193.757 54.8114C191.315 60.7208 190.218 67.0999 190.548 73.4857Z" fill="black"/>
<path d="M157.62 21.4439C155.266 22.0643 153.224 23.4613 150.943 24.3748C148.574 25.3517 146.024 25.7669 143.538 26.3677C137.783 27.7648 132.005 30.3586 128.532 35.1602C125.972 38.6919 124.912 43.0539 123.158 47.0545C121.693 50.4103 119.739 53.5561 118.66 57.0487C117.248 61.6061 117.409 66.4908 117.756 71.2485C118.039 75.1563 118.469 79.1081 120.242 82.5713C121.17 84.3885 122.45 86.0151 123.378 87.8322C124.492 90.0156 125.078 92.4238 126.006 94.6708C126.934 96.9178 128.297 99.1647 130.451 100.337L134.017 98.2513C139.337 95.1397 144.656 92.0233 149.809 88.643C154.303 85.7122 158.836 82.3466 161.23 77.5303C163.35 73.2757 163.56 68.3031 163.013 63.5795C162.466 58.856 161.215 54.2351 160.571 49.5262C159.749 43.5995 159.873 37.58 160.937 31.6921C161.425 29.0348 162.725 26.2896 162.993 23.6421C163.291 20.8138 159.657 20.9066 157.62 21.4439Z" fill="#3F3D56"/>
<path d="M135.575 99.0963C138.306 101.68 142.233 102.433 145.648 103.981C148.185 105.159 150.469 106.818 152.374 108.866C153.424 110.019 154.44 111.587 153.913 113.052C153.468 114.312 152.105 114.957 150.855 115.426C149.301 116.012 147.567 116.53 146.019 115.939C145.11 115.592 144.378 114.898 143.542 114.405C141.496 113.189 138.917 113.184 136.816 112.06C133.856 110.478 132.381 106.995 129.597 105.114C128.072 104.089 125.967 103.248 125.811 101.417C125.804 100.754 125.944 100.098 126.221 99.4969C126.783 98.0022 127.74 92.8683 129.88 93.0051C132.21 93.1565 133.841 97.8605 135.575 99.0963Z" fill="#FBBEBE"/>
<path d="M121.268 76.2016C122.162 79.4158 124.238 82.1561 126.392 84.7059C127.941 86.5377 129.641 88.5307 129.694 90.9291C129.743 93.1956 128.229 95.2814 126.275 96.439C124.321 97.5967 122.02 97.9679 119.759 98.1145C117.949 98.2887 116.124 98.1616 114.356 97.7384C109.892 96.527 106.795 92.6338 103.283 89.6248C101.197 87.8419 98.8521 86.2886 97.2548 84.0563C95.6575 81.8239 94.9834 78.6196 96.5563 76.3677C97.1239 75.6378 97.7802 74.9814 98.5102 74.4138C101.178 72.1009 103.453 69.3707 105.246 66.3296C105.969 65.1036 106.663 63.7749 107.879 63.0373C109.623 61.9773 111.86 62.4609 113.834 62.9787C115.978 63.5404 122.02 64.6395 122.44 67.3749C122.611 68.4984 121.219 70.2472 121.009 71.4537C120.742 73.0359 120.83 74.6578 121.268 76.2016Z" fill="#FBBEBE"/>
<path d="M132.312 82.3271C132.952 83.4868 133.479 84.7055 133.885 85.9662C135.375 91.144 132.713 96.4781 131.443 101.715C129.821 108.421 130.51 115.436 130.432 122.338C130.398 125.493 130.061 128.966 127.789 131.155C127.203 131.712 126.5 132.181 126.104 132.884C125.859 133.399 125.677 133.942 125.562 134.501C125.215 135.708 124.6 136.821 123.762 137.756C122.925 138.692 121.887 139.427 120.726 139.905C119.565 140.383 118.31 140.593 117.057 140.518C115.803 140.443 114.583 140.086 113.487 139.473C111.635 138.443 110.028 136.655 107.908 136.601C107.242 136.633 106.578 136.707 105.92 136.821C103.81 137.031 101.744 136.25 99.7655 135.483C99.2933 135.334 98.8528 135.098 98.4662 134.789C98.1096 134.462 97.88 134.022 97.5527 133.67C96.3462 132.371 94.2849 132.596 92.5459 132.234C91.2484 131.944 90.0603 131.291 89.1201 130.35C88.1799 129.41 87.5266 128.222 87.2362 126.925C86.8845 125.244 87.1825 123.505 87.4756 121.81L88.7847 114.259C89.334 111.489 89.7141 108.688 89.9228 105.871C90.0833 102.689 89.8105 99.4993 89.1119 96.3902C88.5355 93.8501 87.6758 91.3638 87.3632 88.7749C86.8185 84.1351 88.0391 79.4602 90.7825 75.679C91.4615 74.746 92.3505 73.813 93.5033 73.7251C94.4363 73.6421 95.3107 74.1403 96.1215 74.619C103.165 78.7873 110.258 82.8693 117.399 86.865C119.353 87.9641 121.351 89.068 123.53 89.6102C124.184 89.7763 125.122 89.7079 125.215 89.0436C125.227 88.7904 125.16 88.5397 125.024 88.3255C123.803 85.976 122.035 83.9586 120.628 81.7214C119.221 79.4842 118.137 76.8367 118.552 74.238C119.119 70.6428 122.46 68.264 125.19 71.0825C128.253 74.2819 130.305 78.3949 132.312 82.3271Z" fill="#F86D70"/>
<path d="M110.439 127.916C116.168 128.283 122.025 128.673 127.33 130.871C129.035 131.575 130.842 132.483 132.635 132.049C133.527 131.777 134.357 131.332 135.077 130.74C137.286 129.12 139.372 127.341 141.32 125.415C141.124 124.345 139.674 124.199 138.589 124.209C135.945 124.224 133.337 123.597 130.989 122.382C130.217 121.918 129.398 121.536 128.546 121.244C126.226 120.604 123.862 121.825 121.532 122.421C118.083 123.3 114.449 122.787 110.927 122.269L101.421 120.868C100.537 120.741 99.5408 120.638 98.8374 121.185C98.3672 121.629 98.0449 122.207 97.9142 122.841C96.7516 126.749 97.3085 127.076 101.177 127.32L110.439 127.916Z" fill="#FBBEBE"/>
<path opacity="0.1" d="M240.235 60.0967C248.868 60.0967 255.867 53.0984 255.867 44.4656C255.867 35.8328 248.868 28.8345 240.235 28.8345C231.603 28.8345 224.604 35.8328 224.604 44.4656C224.604 53.0984 231.603 60.0967 240.235 60.0967Z" fill="black"/>
<path d="M240.123 59.4177C248.756 59.4177 255.754 52.4194 255.754 43.7866C255.754 35.1538 248.756 28.1555 240.123 28.1555C231.49 28.1555 224.492 35.1538 224.492 43.7866C224.492 52.4194 231.49 59.4177 240.123 59.4177Z" fill="#FBBEBE"/>
<path d="M253.317 23.94C254.567 24.7118 255.876 25.5422 256.56 26.8415C256.928 27.7237 257.208 28.6399 257.395 29.577C258.25 32.5078 260.527 35.0528 260.663 38.1057C260.815 41.4517 258.304 44.3581 255.461 46.1118C254.812 46.59 254.03 46.8531 253.224 46.864C252.398 46.8103 251.685 46.2925 250.928 45.9603C247.719 44.534 244.129 46.3413 240.729 47.1717C237.196 48.0249 233.489 47.8073 230.08 46.5465C228.248 45.8626 226.47 44.8369 225.322 43.2493C224.174 41.6618 223.764 39.4392 224.741 37.7345C225.23 36.865 226.04 36.0785 225.987 35.0869C225.957 34.491 225.606 33.9537 225.498 33.3675C225.342 32.4345 225.83 31.526 226.329 30.7298C228.589 27.0919 231.446 23.8603 234.779 21.1704C235.756 20.3693 236.885 19.5877 238.164 19.5291C240.734 19.4168 242.942 21.3316 245.584 21.3413C248.583 21.3511 250.738 22.3476 253.317 23.94Z" fill="#3F3D56"/>
<path opacity="0.1" d="M182.581 40.4846C191.484 40.4846 198.701 33.2676 198.701 24.365C198.701 15.4624 191.484 8.24541 182.581 8.24541C173.678 8.24541 166.461 15.4624 166.461 24.365C166.461 33.2676 173.678 40.4846 182.581 40.4846Z" fill="black"/>
<path d="M182.864 40.0889C191.767 40.0889 198.984 32.8719 198.984 23.9693C198.984 15.0667 191.767 7.84975 182.864 7.84975C173.962 7.84975 166.745 15.0667 166.745 23.9693C166.745 32.8719 173.962 40.0889 182.864 40.0889Z" fill="#BE6F72"/>
<path d="M191.476 33.0744C193.752 34.3493 196.561 34.2175 199.101 33.6362C200.542 33.3655 201.908 32.7891 203.107 31.9461C203.702 31.5205 204.193 30.9652 204.543 30.3221C204.892 29.679 205.091 28.9649 205.124 28.2337C205.124 26.5973 204.049 25.1221 203.918 23.4857C203.756 21.4244 205.1 19.5193 205.241 17.4482C205.383 15.3771 204.362 13.5111 203.366 11.7331C201.651 8.68014 199.868 5.58811 197.26 3.25322C194.651 0.918319 191.037 -0.571521 187.617 0.214919C185.937 0.600811 184.379 1.50448 182.664 1.68033C181.14 1.82199 179.636 1.36283 178.116 1.16744C176.597 0.972051 174.893 1.09417 173.803 2.14438C173.207 2.73055 172.826 3.55607 172.128 3.98592C171.654 4.2044 171.164 4.38569 170.662 4.52813C168.899 5.23641 168.093 7.22449 167.468 9.0123L163.277 21.0238C164.679 22.0008 166.369 22.4453 167.903 23.1975C169.436 23.9498 170.926 25.1514 171.239 26.8318C171.478 28.1067 171.024 29.5721 171.766 30.637C172.445 31.6139 173.828 31.78 175 31.6139C176.172 31.4478 177.35 31.0424 178.522 31.2231C181.453 31.6676 182.542 33.4652 185.253 31.2231C187.964 28.981 188.956 31.6579 191.476 33.0744Z" fill="#3F3D56"/>
<path opacity="0.1" d="M114.361 74.9756C122.454 74.9756 129.015 68.4147 129.015 60.3214C129.015 52.2281 122.454 45.6673 114.361 45.6673C106.268 45.6673 99.7069 52.2281 99.7069 60.3214C99.7069 68.4147 106.268 74.9756 114.361 74.9756Z" fill="black"/>
<path d="M114.928 74.1794C123.021 74.1794 129.582 67.6185 129.582 59.5252C129.582 51.4319 123.021 44.871 114.928 44.871C106.834 44.871 100.274 51.4319 100.274 59.5252C100.274 67.6185 106.834 74.1794 114.928 74.1794Z" fill="#FBBEBE"/>
<path d="M126.148 45.1983C122.659 42.5216 118.739 40.46 114.556 39.1022C111.88 38.2327 108.968 37.6368 106.252 38.4379C102.569 39.4881 97.6407 41.0561 95.3595 44.1383C94.236 45.6526 93.0979 47.2108 92.5557 49.0231C91.4713 52.6671 93.0148 56.5504 92.9123 60.3507C92.7901 64.7812 90.4406 68.8257 87.8761 72.4404C85.3116 76.0551 84.7939 81.2329 83.2796 85.4045C82.7618 86.8357 82.5957 88.8238 83.9293 89.5418C85.1016 90.1915 86.5182 89.3806 87.6026 88.5991L94.1237 83.8853C94.6306 83.4687 95.2149 83.1565 95.8431 82.967C97.1864 82.6544 98.5004 83.4945 99.6239 84.2907L113.301 93.9625C113.571 93.4106 113.717 92.806 113.728 92.1915C113.739 91.577 113.615 90.9676 113.365 90.4064C114.649 90.8021 115.582 91.8718 116.711 92.6338C117.839 93.3959 119.554 93.645 120.374 92.5801C121.195 91.5152 120.574 90.084 119.661 89.2243C118.748 88.3646 117.546 87.8517 116.652 86.9676C114.879 85.2042 114.698 82.4199 113.58 80.1925C112.778 78.6294 111.484 77.3203 110.917 75.6546C109.994 72.9338 111.201 70.0029 112.383 67.3847C113.794 64.278 115.392 60.9613 118.396 59.3396C119.407 58.7925 120.526 58.4701 121.561 57.9719C124.14 56.736 127.359 53.8199 128.62 51.2065C129.724 48.8863 128.024 46.6442 126.148 45.1983Z" fill="#3F3D56"/>
<path opacity="0.1" d="M103.966 93.6254C105.368 94.5193 106.951 95.0908 108.328 96.0238C109.706 96.9568 110.912 98.3734 110.952 100.034C110.991 101.622 109.975 103.014 108.998 104.274L97.0985 119.891L103.165 121.498C102.188 122.846 101.939 124.565 101.431 126.148C100.923 127.731 99.9658 129.377 98.3441 129.792C96.8786 130.168 95.3448 129.396 93.8306 129.484C92.712 129.553 91.6569 130.08 90.5383 130.124C89.0973 130.178 87.7589 129.421 86.5572 128.62C83.8804 126.827 81.2231 124.258 81.2427 121.034C81.3061 119.943 81.5248 118.868 81.8923 117.839C83.6459 112.119 85.4631 106.262 89.0973 101.504C91.0512 98.9644 93.4398 96.82 95.8284 94.6903C96.3715 94.1435 97.0107 93.7014 97.7139 93.3861C99.277 92.7999 100.982 93.5229 102.599 93.9918C104.215 94.4607 106.252 94.5291 107.185 93.1467" fill="black"/>
<path d="M103.454 92.6632C104.855 93.5522 106.438 94.1286 107.816 95.0616C109.193 95.9945 110.4 97.4111 110.444 99.067C110.488 100.723 109.467 102.052 108.49 103.312L96.5856 118.914L102.652 120.521C101.675 121.869 101.426 123.583 100.918 125.171C100.41 126.759 99.4529 128.4 97.8312 128.815C96.3658 129.191 94.832 128.419 93.3177 128.507C92.1991 128.571 91.144 129.103 90.0254 129.142C88.5844 129.196 87.246 128.439 86.0444 127.638C83.3675 125.85 80.7102 123.276 80.7347 120.057C80.7932 118.966 81.0104 117.89 81.3795 116.862C83.1331 111.137 84.9502 105.28 88.5844 100.528C90.5383 97.9826 92.9318 95.8382 95.3156 93.689C95.8612 93.1452 96.4998 92.7035 97.2011 92.3847C98.7642 91.7986 100.469 92.5215 102.086 92.9953C103.703 93.4691 105.74 93.5326 106.673 92.1503" fill="#F86D70"/>
<g opacity="0.1">
<path opacity="0.1" d="M225.83 40.0107C226.978 41.5983 228.761 42.6289 230.588 43.3079C233.996 44.5737 237.704 44.7914 241.237 43.9332C244.656 43.1028 248.227 41.2954 251.436 42.7218C252.193 43.0588 252.902 43.5717 253.727 43.6303C254.535 43.6157 255.318 43.3512 255.969 42.8732C257.947 41.652 259.765 39.874 260.634 37.7784C260.634 37.8859 260.634 37.9933 260.663 38.1057C260.815 41.4517 258.304 44.3581 255.461 46.1117C254.812 46.59 254.03 46.8531 253.224 46.864C252.398 46.8103 251.685 46.2925 250.928 45.9603C247.719 44.534 244.129 46.3413 240.729 47.1717C237.196 48.0249 233.489 47.8073 230.08 46.5465C228.248 45.8626 226.47 44.8368 225.322 43.2493C224.174 41.6618 223.764 39.4392 224.741 37.7345L224.814 37.6123C224.973 38.4768 225.319 39.2957 225.83 40.0107Z" fill="black"/>
<path opacity="0.1" d="M226.48 31.8484C226.519 32.6006 226.065 33.2308 225.63 33.8707C225.57 33.712 225.522 33.5486 225.488 33.3822C225.342 32.5078 225.762 31.6579 226.226 30.891C226.359 31.1952 226.445 31.5181 226.48 31.8484Z" fill="black"/>
</g>
<path opacity="0.1" d="M168.611 7.41989L164.42 19.4265C165.822 20.4035 167.512 20.8529 169.046 21.6002C170.579 22.3476 172.069 23.5541 172.382 25.2345C172.621 26.5094 172.167 27.9748 172.909 29.0445C173.588 30.0215 174.971 30.1827 176.143 30.0215C177.315 29.8603 178.493 29.45 179.665 29.6307C182.596 30.0752 183.685 31.8728 186.396 29.6551C189.107 27.4375 190.089 30.0703 192.609 31.4869C194.886 32.7667 197.694 32.6348 200.234 32.0487C201.675 31.7794 203.04 31.2048 204.24 30.3634C204.411 30.224 204.574 30.0756 204.728 29.9189C204.354 30.7195 203.791 31.4169 203.087 31.951C201.888 32.794 200.522 33.3703 199.082 33.6411C196.542 34.2224 193.708 34.3542 191.457 33.0793C188.936 31.6628 187.901 29.0787 185.243 31.2476C182.586 33.4164 181.433 31.6676 178.512 31.2476C177.34 31.0668 176.167 31.4723 174.99 31.6383C173.813 31.8044 172.436 31.6383 171.757 30.6614C171.014 29.5965 171.468 28.1311 171.229 26.8562C170.916 25.1758 169.427 23.9693 167.893 23.222C166.359 22.4746 164.669 22.0203 163.267 21.0483L167.478 9.00743C167.966 7.68367 168.503 6.25244 169.48 5.30969C169.142 5.99204 168.851 6.69715 168.611 7.41989Z" fill="black"/>
<g opacity="0.1">
<path opacity="0.1" d="M114.454 90.934C115.533 91.4224 116.896 91.4957 117.58 90.5823C118.347 89.6053 117.78 88.0911 116.867 87.2265C115.954 86.3619 114.752 85.8539 113.858 84.9697C112.085 83.2112 111.904 80.4269 110.785 78.1995C109.984 76.6315 108.69 75.3224 108.123 73.6567C107.2 70.9408 108.407 68.0051 109.589 65.3918C111 62.2851 112.598 58.9684 115.602 57.3466C116.613 56.7995 117.732 56.4771 118.767 55.9789C121.346 54.7431 124.565 51.822 125.826 49.2087C126.886 47.0057 125.391 44.8662 123.613 43.4154C124.477 43.9771 125.322 44.5682 126.143 45.1983C128.024 46.6637 129.719 48.8863 128.585 51.1968C127.325 53.8101 124.106 56.7263 121.527 57.9621C120.491 58.4506 119.373 58.7827 118.362 59.3298C115.358 60.9516 113.76 64.2683 112.349 67.375C111.162 69.9932 109.955 72.924 110.883 75.6448C111.45 77.3105 112.744 78.6196 113.545 80.1827C114.679 82.4101 114.845 85.1944 116.618 86.9578C117.512 87.8419 118.713 88.3499 119.627 89.2145C120.54 90.0791 121.092 91.5739 120.34 92.5704C119.588 93.5668 117.8 93.3617 116.676 92.6241C115.919 92.1112 115.231 91.4371 114.454 90.934Z" fill="black"/>
<path opacity="0.1" d="M84.8281 86.6012L91.3492 81.8924C91.8558 81.4743 92.4402 81.1605 93.0686 80.9691C94.4119 80.6614 95.7259 81.5016 96.8493 82.2978L110.527 91.9695C110.797 91.4168 110.943 90.8114 110.954 90.1961C110.965 89.5808 110.841 88.9706 110.59 88.4086C111.845 88.7994 112.759 89.8447 113.848 90.5774C113.69 90.5056 113.527 90.4452 113.36 90.3967C113.61 90.9579 113.734 91.5673 113.723 92.1818C113.712 92.7962 113.567 93.4008 113.296 93.9527L99.619 84.281C98.4955 83.4848 97.1766 82.6446 95.8382 82.9572C95.21 83.1468 94.6257 83.4589 94.1188 83.8756L87.5977 88.5893C86.5133 89.3709 85.0967 90.1817 83.9244 89.5321C83.6037 89.335 83.3406 89.057 83.1614 88.7261C82.9821 88.3951 82.8932 88.0228 82.9035 87.6466C83.5954 87.4001 84.2447 87.0474 84.8281 86.6012Z" fill="black"/>
</g>
<path d="M247.748 118.503C247.748 118.503 219.759 120.745 214.19 116.779L239.796 112.832L247.748 118.503Z" fill="#E3E8F4"/>
<path opacity="0.1" d="M247.748 118.503C247.748 118.503 219.759 120.745 214.19 116.779L239.796 112.832L247.748 118.503Z" fill="black"/>
<path d="M247.748 118.503L239.908 113.54C239.908 113.54 216.52 120.262 210.111 117.487L216.632 108.338L239.806 112.857L247.748 118.503Z" fill="#E3E8F4"/>
<path d="M212.969 52.6964C212.104 53.7885 211.411 55.0056 210.912 56.3062C210.688 56.9949 210.575 57.713 210.385 58.4115C209.849 60.151 209.023 61.7876 207.943 63.2523C205.534 66.7546 202.525 70.1348 201.92 74.3406C201.627 76.4166 201.949 78.5268 202.359 80.5832C202.581 81.9393 202.969 83.2631 203.512 84.5252C204.132 85.8636 205.056 87.0408 205.764 88.3353C206.411 89.6059 206.956 90.9256 207.395 92.2822C208.231 91.4469 208.724 90.3283 209.393 89.3513C210.063 88.3744 211.059 87.4951 212.236 87.4805C213.594 87.4805 214.713 88.604 216.056 88.7798C216.266 88.8221 216.483 88.8017 216.681 88.7212C217.17 88.4916 217.209 87.8322 217.17 87.3046C216.784 83.6167 214.674 79.9775 215.67 76.4019C216.588 73.095 219.871 71.0287 221.595 68.0637C222.846 65.9095 223.217 63.3695 223.549 60.8978C223.964 57.9426 224.385 54.9629 224.199 51.9881C224.106 50.4885 222.914 41.0121 220.736 42.0037C219.978 42.3457 219.319 43.7964 218.845 44.4461L216.891 47.2157L212.969 52.6964Z" fill="#3F3D56"/>
<path d="M154.504 113.829L138.79 126.622L118.572 123.007L132.185 112.319L154.504 113.829Z" fill="#E3E8F4"/>
<path opacity="0.1" d="M155.07 113.032L139.356 125.826L119.138 122.211L132.752 111.523L155.07 113.032Z" fill="black"/>
<path d="M154.958 112.353L139.244 125.142L119.021 121.532L132.64 110.839L154.958 112.353Z" fill="#E3E8F4"/>
<path opacity="0.1" d="M155.412 110.873L139.693 123.666L119.475 120.052L133.094 109.364L155.412 110.873Z" fill="black"/>
<path d="M155.295 110.194L139.581 122.987L119.363 119.373L132.977 108.685L155.295 110.194Z" fill="#E3E8F4"/>
<path d="M362.002 284.994C362.372 284.814 362.781 284.727 363.193 284.741C363.605 284.754 364.007 284.868 364.365 285.073C364.723 285.278 365.025 285.567 365.246 285.915C365.466 286.263 365.599 286.659 365.631 287.07L366.505 298.408L361.318 299.345L358.582 291.149L362.002 284.994Z" fill="#3F3D56"/>
<path d="M180.51 209.003L101.119 249.292C100.208 249.756 99.4443 250.464 98.9122 251.337C98.3801 252.21 98.1005 253.213 98.1045 254.235C98.1086 255.257 98.3961 256.258 98.9351 257.126C99.4742 257.995 100.244 258.697 101.158 259.154L272.147 344.964C275.189 346.487 278.559 347.24 281.961 347.154C285.362 347.069 288.69 346.149 291.652 344.475L363.672 303.864C364.546 303.365 365.267 302.638 365.758 301.759C366.248 300.881 366.49 299.886 366.456 298.88C366.422 297.875 366.115 296.898 365.566 296.054C365.018 295.211 364.25 294.533 363.345 294.094L185.39 208.949C184.627 208.584 183.79 208.398 182.944 208.408C182.098 208.417 181.265 208.621 180.51 209.003Z" fill="#3F3D56"/>
<path d="M100.586 242.282L98.0998 244.129L97.9045 252.97C97.8887 253.659 98.0673 254.339 98.4197 254.932C98.7721 255.524 99.2842 256.006 99.8974 256.321L273.808 345.565C274.203 345.768 274.643 345.867 275.087 345.851C275.531 345.835 275.963 345.706 276.342 345.475C276.721 345.244 277.035 344.919 277.252 344.532C277.47 344.145 277.584 343.708 277.584 343.264V330.422L100.586 242.282Z" fill="#3F3D56"/>
<path d="M180.51 198.754L101.119 239.039C100.207 239.502 99.4426 240.209 98.9092 241.081C98.3758 241.952 98.0947 242.955 98.0972 243.977C98.0998 244.999 98.3858 246.001 98.9235 246.87C99.4612 247.739 100.23 248.442 101.143 248.901L272.147 334.711C275.19 336.233 278.56 336.985 281.961 336.899C285.362 336.814 288.69 335.895 291.652 334.222L363.672 293.606C364.546 293.107 365.267 292.38 365.758 291.502C366.248 290.623 366.49 289.628 366.456 288.622C366.422 287.617 366.115 286.64 365.567 285.797C365.018 284.953 364.25 284.275 363.345 283.836L185.39 198.696C184.626 198.331 183.789 198.147 182.943 198.157C182.097 198.167 181.265 198.372 180.51 198.754Z" fill="#E3E8F4"/>
<path d="M196.942 206.067L109.467 250.484L259.813 325.659L350.024 279.87L196.942 206.067Z" fill="#3F3D56"/>
<path d="M314.83 311.992C319.926 311.992 324.057 309.545 324.057 306.526C324.057 303.507 319.926 301.06 314.83 301.06C309.734 301.06 305.603 303.507 305.603 306.526C305.603 309.545 309.734 311.992 314.83 311.992Z" fill="#3F3D56"/>
<path d="M146.542 221.102C147.014 221.102 147.396 220.719 147.396 220.247C147.396 219.775 147.014 219.392 146.542 219.392C146.07 219.392 145.687 219.775 145.687 220.247C145.687 220.719 146.07 221.102 146.542 221.102Z" fill="#3F3D56"/>
<path d="M143.982 227.936C144.549 227.936 145.008 227.476 145.008 226.91C145.008 226.343 144.549 225.884 143.982 225.884C143.416 225.884 142.956 226.343 142.956 226.91C142.956 227.476 143.416 227.936 143.982 227.936Z" fill="#3F3D56"/>
<path d="M147.738 225.2L157.991 220.418" stroke="#3F3D56" stroke-miterlimit="10"/>
<path d="M238.565 247.435L209.622 264.145C205.416 266.573 203.975 271.951 206.403 276.156C208.831 280.361 214.209 281.802 218.414 279.374L247.358 262.664C251.563 260.236 253.004 254.858 250.576 250.653C248.148 246.447 242.771 245.007 238.565 247.435Z" fill="#1B487E"/>
<path d="M264.454 260.625L235.51 277.335C231.305 279.763 229.864 285.141 232.292 289.346C234.72 293.551 240.097 294.992 244.303 292.564L273.247 275.854C277.452 273.426 278.893 268.048 276.465 263.843C274.037 259.638 268.659 258.197 264.454 260.625Z" fill="#1B487E"/>
<path d="M215.119 232.293L186.175 249.004C181.97 251.432 180.529 256.809 182.957 261.015C185.385 265.22 190.763 266.661 194.968 264.233L223.912 247.523C228.117 245.095 229.558 239.717 227.13 235.512C224.702 231.306 219.324 229.866 215.119 232.293Z" fill="#1B487E"/>
</g>
<defs>
<clipPath id="clip0">
<rect width="451.436" height="400" fill="white"/>
</clipPath>
</defs>
</svg>
