<svg width="203" height="43" viewBox="0 0 203 43" fill="none" xmlns="http://www.w3.org/2000/svg">
<g clip-path="url(#clip0)">
<path d="M39.1546 16.9675V38.7603C39.1586 39.3039 38.9288 39.8231 38.5236 40.1855L38.4663 40.2427C38.1169 40.5406 37.6722 40.7036 37.213 40.7019H2.59157C2.13558 40.7018 1.69459 40.539 1.34791 40.2427C1.32427 40.2288 1.30458 40.2091 1.29066 40.1855C0.88245 39.8243 0.64894 39.3053 0.649434 38.7603V16.9675C0.644904 16.483 0.830312 16.016 1.16596 15.6666C1.30277 15.505 1.46717 15.369 1.65135 15.2646C1.93872 15.1074 2.26111 15.0251 2.58868 15.0253H37.2126C37.756 15.0351 38.2729 15.2625 38.6475 15.6563C38.973 16.0155 39.1538 16.4827 39.1546 16.9675Z" fill="#1C68FA"/>
<path d="M38.6493 15.6545C38.5129 15.8229 19.9122 30.6155 19.9122 30.6155L1.16486 15.671L1.17309 15.6632V15.655L18.8506 1.27444C19.4675 0.772657 20.352 0.772657 20.969 1.27444L38.6493 15.6545Z" fill="#1B487E"/>
<path d="M34.6946 5.6272V18.8393L19.9103 30.6155L5.11768 18.8233V5.6272H34.6946Z" fill="#EEEFEE"/>
<path d="M38.5211 40.1845C38.5045 40.2052 38.4855 40.2241 38.4648 40.2408L21.8111 29.1316L23.3353 27.904L38.5211 40.1845Z" fill="#1B487E"/>
<path d="M18.0006 29.1234L1.34687 40.2394C1.3224 40.2273 1.30255 40.2076 1.29053 40.183L16.4685 27.8878L18.0006 29.1234Z" fill="#1B487E"/>
<path d="M8.39423 9.095H31.4093V10.0935H8.39423V9.095Z" fill="#DBD8DD"/>
<path d="M8.39423 12.9463H31.4093V13.9449H8.39423V12.9463Z" fill="#DBD8DD"/>
<path d="M8.39423 16.7981H31.4093V17.7967H8.39423V16.7981Z" fill="#DBD8DD"/>
<path d="M12.2596 20.6494H27.5445V21.6479H12.2596V20.6494Z" fill="#DBD8DD"/>
</g>
<path d="M68.5582 16.0094V22.394H76.6146V25.6897H68.5582V32.2016H78.7799V35.6248H64.2594V12.6022H78.7799V16.0094H68.5582ZM82.9392 35.6248V19.2893H85.3434C85.8529 19.2893 86.1872 19.5281 86.3465 20.0057L86.6012 21.2158C86.8878 20.8973 87.185 20.6054 87.4928 20.3401C87.8112 20.0747 88.1456 19.8465 88.4959 19.6555C88.8568 19.4644 89.2389 19.3158 89.6422 19.2096C90.0562 19.0929 90.5073 19.0345 90.9956 19.0345C92.0251 19.0345 92.869 19.3158 93.5271 19.8784C94.1958 20.4303 94.6947 21.168 95.0237 22.0915C95.2785 21.5501 95.5969 21.0884 95.979 20.7063C96.3611 20.3135 96.7804 19.9951 97.2368 19.751C97.6932 19.5068 98.1762 19.3264 98.6857 19.2096C99.2058 19.0929 99.7259 19.0345 100.246 19.0345C101.148 19.0345 101.95 19.1725 102.65 19.4485C103.351 19.7244 103.94 20.1278 104.417 20.6585C104.895 21.1892 105.256 21.8367 105.5 22.6009C105.755 23.3652 105.882 24.2409 105.882 25.228V35.6248H101.95V25.228C101.95 24.1878 101.721 23.4076 101.265 22.8875C100.809 22.3568 100.14 22.0915 99.2588 22.0915C98.8555 22.0915 98.4787 22.1604 98.1284 22.2984C97.7888 22.4364 97.4862 22.6381 97.2209 22.9035C96.9661 23.1582 96.7645 23.4819 96.6159 23.8747C96.4673 24.2674 96.393 24.7185 96.393 25.228V35.6248H92.4444V25.228C92.4444 24.1347 92.2215 23.3386 91.7757 22.8398C91.3405 22.3409 90.6983 22.0915 89.8492 22.0915C89.276 22.0915 88.74 22.2347 88.2411 22.5213C87.7529 22.7973 87.2964 23.1794 86.8719 23.6677V35.6248H82.9392ZM119.577 28.6511C118.441 28.7042 117.486 28.805 116.711 28.9536C115.936 29.0916 115.315 29.2721 114.848 29.495C114.381 29.7179 114.047 29.9779 113.845 30.2751C113.643 30.5723 113.542 30.8961 113.542 31.2464C113.542 31.9363 113.744 32.4299 114.147 32.7271C114.561 33.0243 115.097 33.1729 115.755 33.1729C116.562 33.1729 117.257 33.0296 117.841 32.743C118.436 32.4458 119.014 32 119.577 31.4056V28.6511ZM110.565 21.566C112.444 19.8465 114.705 18.9867 117.348 18.9867C118.303 18.9867 119.157 19.146 119.911 19.4644C120.665 19.7722 121.301 20.2074 121.822 20.77C122.342 21.3219 122.734 21.9853 123 22.7602C123.276 23.535 123.414 24.3842 123.414 25.3076V35.6248H121.63C121.259 35.6248 120.972 35.5717 120.771 35.4656C120.569 35.3488 120.41 35.1206 120.293 34.7809L119.943 33.6027C119.529 33.9743 119.125 34.3033 118.733 34.5899C118.34 34.8659 117.931 35.0994 117.507 35.2904C117.082 35.4815 116.626 35.6248 116.138 35.7203C115.66 35.8265 115.129 35.8795 114.545 35.8795C113.855 35.8795 113.219 35.7893 112.635 35.6089C112.051 35.4178 111.547 35.1365 111.122 34.765C110.698 34.3935 110.369 33.9318 110.135 33.3798C109.902 32.8279 109.785 32.1857 109.785 31.4533C109.785 31.0394 109.854 30.6307 109.992 30.2274C110.13 29.8134 110.353 29.4207 110.661 29.0492C110.979 28.6777 111.388 28.3274 111.886 27.9984C112.385 27.6693 112.996 27.3827 113.717 27.1386C114.45 26.8945 115.299 26.6981 116.265 26.5495C117.231 26.3903 118.335 26.2947 119.577 26.2629V25.3076C119.577 24.2143 119.343 23.4076 118.876 22.8875C118.409 22.3568 117.735 22.0915 116.854 22.0915C116.217 22.0915 115.686 22.1658 115.262 22.3144C114.848 22.463 114.482 22.6328 114.163 22.8238C113.845 23.0043 113.553 23.1688 113.288 23.3174C113.033 23.466 112.746 23.5403 112.428 23.5403C112.152 23.5403 111.918 23.4713 111.727 23.3333C111.536 23.1847 111.382 23.0149 111.266 22.8238L110.565 21.566ZM132.52 19.2893V35.6248H128.572V19.2893H132.52ZM133.062 14.5287C133.062 14.8684 132.993 15.1868 132.855 15.484C132.717 15.7812 132.531 16.0413 132.297 16.2642C132.074 16.4871 131.809 16.6675 131.501 16.8055C131.193 16.9329 130.864 16.9965 130.514 16.9965C130.174 16.9965 129.851 16.9329 129.543 16.8055C129.246 16.6675 128.986 16.4871 128.763 16.2642C128.54 16.0413 128.359 15.7812 128.221 15.484C128.094 15.1868 128.03 14.8684 128.03 14.5287C128.03 14.1784 128.094 13.8494 128.221 13.5416C128.359 13.2338 128.54 12.9684 128.763 12.7455C128.986 12.5226 129.246 12.3474 129.543 12.2201C129.851 12.0821 130.174 12.0131 130.514 12.0131C130.864 12.0131 131.193 12.0821 131.501 12.2201C131.809 12.3474 132.074 12.5226 132.297 12.7455C132.531 12.9684 132.717 13.2338 132.855 13.5416C132.993 13.8494 133.062 14.1784 133.062 14.5287ZM141.837 11.9653V35.6248H137.904V11.9653H141.837ZM172.419 12.6022V35.6248H168.645V20.754C168.645 20.1596 168.677 19.5175 168.741 18.8275L161.783 31.8991C161.454 32.5254 160.95 32.8385 160.271 32.8385H159.666C158.986 32.8385 158.482 32.5254 158.153 31.8991L151.116 18.7798C151.148 19.13 151.174 19.475 151.195 19.8147C151.217 20.1543 151.227 20.4675 151.227 20.754V35.6248H147.454V12.6022H150.686C150.877 12.6022 151.041 12.6075 151.179 12.6181C151.317 12.6287 151.439 12.6553 151.546 12.6977C151.662 12.7402 151.763 12.8092 151.848 12.9047C151.944 13.0002 152.034 13.1276 152.119 13.2868L159.013 26.0718C159.193 26.4115 159.358 26.7618 159.506 27.1227C159.666 27.4836 159.82 27.8551 159.968 28.2372C160.117 27.8444 160.271 27.4676 160.43 27.1067C160.589 26.7352 160.759 26.3797 160.939 26.04L167.738 13.2868C167.823 13.1276 167.913 13.0002 168.009 12.9047C168.104 12.8092 168.205 12.7402 168.311 12.6977C168.428 12.6553 168.555 12.6287 168.693 12.6181C168.831 12.6075 168.996 12.6022 169.187 12.6022H172.419ZM182.12 19.2893V35.6248H178.171V19.2893H182.12ZM182.661 14.5287C182.661 14.8684 182.592 15.1868 182.454 15.484C182.316 15.7812 182.13 16.0413 181.897 16.2642C181.674 16.4871 181.408 16.6675 181.101 16.8055C180.793 16.9329 180.464 16.9965 180.113 16.9965C179.774 16.9965 179.45 16.9329 179.142 16.8055C178.845 16.6675 178.585 16.4871 178.362 16.2642C178.139 16.0413 177.959 15.7812 177.821 15.484C177.693 15.1868 177.63 14.8684 177.63 14.5287C177.63 14.1784 177.693 13.8494 177.821 13.5416C177.959 13.2338 178.139 12.9684 178.362 12.7455C178.585 12.5226 178.845 12.3474 179.142 12.2201C179.45 12.0821 179.774 12.0131 180.113 12.0131C180.464 12.0131 180.793 12.0821 181.101 12.2201C181.408 12.3474 181.674 12.5226 181.897 12.7455C182.13 12.9684 182.316 13.2338 182.454 13.5416C182.592 13.8494 182.661 14.1784 182.661 14.5287ZM191.436 11.9653V35.6248H187.503V11.9653H191.436ZM200.661 11.9653V35.6248H196.729V11.9653H200.661Z" fill="#1B487E"/>
<defs>
<clipPath id="clip0">
<rect width="39.8039" height="39.8039" fill="white" transform="translate(0 0.898071)"/>
</clipPath>
</defs>
</svg>
