<svg width="501" height="400" viewBox="0 0 501 400" fill="none" xmlns="http://www.w3.org/2000/svg">
<g clip-path="url(#clip0)">
<path d="M322.514 230.774L328.192 250.44L333.871 270.105H322.514H311.156L316.835 250.44L322.514 230.774Z" fill="#3AD29F"/>
<path d="M333.695 228.11L339.368 247.776L345.047 267.447H333.695H322.338L328.017 247.776L333.695 228.11Z" fill="#3AD29F"/>
<path d="M344.872 228.11L350.55 247.776L356.229 267.447H344.872H333.514L339.193 247.776L344.872 228.11Z" fill="#3AD29F"/>
<path d="M431.21 240.118L436.888 259.783L442.567 279.455H431.21H419.852L425.531 259.783L431.21 240.118Z" fill="#3AD29F"/>
<path d="M68.0128 220.769L77.7354 238.783L87.4579 256.797L76.3666 259.207L65.2697 261.622L66.6384 241.192L68.0128 220.769Z" fill="#3AD29F"/>
<path d="M0 399.926L21.4926 298.685L37.3293 277.758L53.1659 250.609L82.5769 233.076L104.635 220.633L113.685 247.781L131.071 259.421L141.964 275.496L158.932 269.84L180.425 252.306L196.827 247.781L220.016 233.076L241.509 238.732L263.567 230.814L278.273 220.633L292.413 237.601L300.331 259.659L302.028 267.577H322.389H345.013L359.153 252.306L381.211 247.781H402.704L417.409 252.306L443.426 259.659L501.117 399.926H0Z" fill="#E0E0E0"/>
<g opacity="0.3">
<path opacity="0.3" d="M161.149 101.117H90.8798C86.1755 101.117 82.3619 104.931 82.3619 109.635C82.3619 114.339 86.1755 118.153 90.8798 118.153H161.149C165.854 118.153 169.667 114.339 169.667 109.635C169.667 104.931 165.854 101.117 161.149 101.117Z" fill="#E0E0E0"/>
<path opacity="0.3" d="M139.855 118.153H69.5851C64.8808 118.153 61.0673 121.966 61.0673 126.671C61.0673 131.375 64.8808 135.188 69.5851 135.188H139.855C144.559 135.188 148.372 131.375 148.372 126.671C148.372 121.966 144.559 118.153 139.855 118.153Z" fill="#E0E0E0"/>
<path opacity="0.3" d="M161.149 135.188H90.8798C86.1755 135.188 82.3619 139.002 82.3619 143.706C82.3619 148.411 86.1755 152.224 90.8798 152.224H161.149C165.854 152.224 169.667 148.411 169.667 143.706C169.667 139.002 165.854 135.188 161.149 135.188Z" fill="#E0E0E0"/>
</g>
<g opacity="0.5">
<path opacity="0.5" d="M241.509 380.306H127.824L134.482 81.1233H234.852L241.509 380.306Z" fill="url(#paint0_linear)"/>
</g>
<path d="M239.292 380.306H130.16L136.546 81.1233H232.901L239.292 380.306Z" fill="white"/>
<g opacity="0.05">
<path opacity="0.05" d="M156.246 380.306H130.16L136.546 81.1233H149.854L156.246 380.306Z" fill="black"/>
</g>
<path d="M113.656 267.447H256.328C256.328 272.813 254.196 277.959 250.402 281.753C246.608 285.547 241.462 287.679 236.096 287.679H133.888C128.522 287.679 123.376 285.547 119.582 281.753C115.788 277.959 113.656 272.813 113.656 267.447Z" fill="#1B487E"/>
<path d="M113.656 166.85H256.328C256.328 172.216 254.196 177.362 250.402 181.156C246.608 184.95 241.462 187.082 236.096 187.082H133.888C128.522 187.082 123.376 184.95 119.582 181.156C115.788 177.362 113.656 172.216 113.656 166.85Z" fill="#1B487E"/>
<path d="M184.989 150.064C199.396 150.064 211.074 138.385 211.074 123.978C211.074 109.572 199.396 97.8932 184.989 97.8932C170.583 97.8932 158.904 109.572 158.904 123.978C158.904 138.385 170.583 150.064 184.989 150.064Z" fill="#FFFFA5"/>
<path opacity="0.1" d="M237.16 287.673H132.287V289.268H237.16V287.673Z" fill="black"/>
<path opacity="0.1" d="M235.033 187.059H133.888V188.123H235.033V187.059Z" fill="black"/>
<path d="M213.738 380.306H180.199V334.255C180.199 329.808 181.965 325.542 185.11 322.397C188.255 319.252 192.521 317.485 196.968 317.485C201.416 317.487 205.68 319.254 208.825 322.399C211.97 325.543 213.737 329.808 213.738 334.255V380.306Z" fill="#E0E0E0"/>
<path d="M499.607 400H0.260132C0.260132 400 32.499 325.907 81.3664 312.797C88.4105 310.867 95.7661 310.346 103.012 311.264C114.799 312.763 125.46 318.945 133.034 328.102C149.051 347.468 198.105 389.667 296.253 341.444C296.253 341.444 331.388 306.309 387.817 347.83C391.313 349.568 394.9 351.116 398.563 352.467C415.876 359.011 450.508 368.129 475.128 348.893C509.194 322.276 499.607 400 499.607 400Z" fill="#4D8AF0"/>
<g opacity="0.3">
<path opacity="0.3" d="M394.174 22.4993H323.905C319.201 22.4993 315.387 26.3129 315.387 31.0172C315.387 35.7215 319.201 39.5351 323.905 39.5351H394.174C398.879 39.5351 402.692 35.7215 402.692 31.0172C402.692 26.3129 398.879 22.4993 394.174 22.4993Z" fill="#E0E0E0"/>
<path opacity="0.3" d="M372.88 39.5351H302.61C297.906 39.5351 294.092 43.3486 294.092 48.0529C294.092 52.7572 297.906 56.5708 302.61 56.5708H372.88C377.584 56.5708 381.398 52.7572 381.398 48.0529C381.398 43.3486 377.584 39.5351 372.88 39.5351Z" fill="#E0E0E0"/>
<path opacity="0.3" d="M394.174 56.5708H323.905C319.201 56.5708 315.387 60.3844 315.387 65.0886C315.387 69.7929 319.201 73.6065 323.905 73.6065H394.174C398.879 73.6065 402.692 69.7929 402.692 65.0886C402.692 60.3844 398.879 56.5708 394.174 56.5708Z" fill="#E0E0E0"/>
</g>
<g opacity="0.3">
<path opacity="0.3" d="M466.571 141.274H396.301C391.597 141.274 387.783 145.088 387.783 149.792C387.783 154.496 391.597 158.31 396.301 158.31H466.571C471.275 158.31 475.088 154.496 475.088 149.792C475.088 145.088 471.275 141.274 466.571 141.274Z" fill="#E0E0E0"/>
<path opacity="0.3" d="M445.276 158.31H375.006C370.302 158.31 366.489 162.124 366.489 166.828C366.489 171.532 370.302 175.346 375.006 175.346H445.276C449.98 175.346 453.794 171.532 453.794 166.828C453.794 162.124 449.98 158.31 445.276 158.31Z" fill="#E0E0E0"/>
<path opacity="0.3" d="M466.571 175.346H396.301C391.597 175.346 387.783 179.159 387.783 183.864C387.783 188.568 391.597 192.381 396.301 192.381H466.571C471.275 192.381 475.088 188.568 475.088 183.864C475.088 179.159 471.275 175.346 466.571 175.346Z" fill="#E0E0E0"/>
</g>
<g opacity="0.3">
<path opacity="0.3" d="M359.068 146.602H377.699C377.699 146.602 370.68 159.023 359.068 146.602Z" fill="#030B44"/>
<path opacity="0.3" d="M360.193 151.885L372.41 137.818C372.41 137.818 377.184 151.263 360.193 151.885Z" fill="#030B44"/>
</g>
<g opacity="0.3">
<path opacity="0.3" d="M292.526 185.464H311.156C311.156 185.464 304.137 197.885 292.526 185.464Z" fill="#030B44"/>
<path opacity="0.3" d="M293.651 190.747L305.863 176.68C305.863 176.68 310.642 190.125 293.651 190.747Z" fill="#030B44"/>
</g>
<g opacity="0.3">
<path opacity="0.3" d="M268.426 39.5973H288.408C288.408 39.5973 280.88 52.9453 268.426 39.5973Z" fill="#030B44"/>
<path opacity="0.3" d="M269.63 45.2702L282.735 30.1745C282.735 30.1745 287.86 44.5972 269.63 45.2702Z" fill="#030B44"/>
</g>
<g opacity="0.05">
<path opacity="0.05" d="M131.071 287.594C131.637 287.645 132.23 287.673 132.819 287.673H153.18L152.75 267.447H131.518L131.071 287.594Z" fill="black"/>
</g>
<g opacity="0.05">
<path opacity="0.05" d="M151.687 166.834H134.719L134.284 187.059H152.117L151.687 166.834Z" fill="black"/>
</g>
<path d="M256.593 60.0718C256.593 79.9751 224.417 96.1059 184.723 96.1059C145.03 96.1059 112.853 79.9751 112.853 60.0718C112.853 40.1686 145.03 0 184.723 0C224.417 0 256.593 40.1742 256.593 60.0718Z" fill="#1B487E"/>
<g opacity="0.05">
<path opacity="0.05" d="M112.435 60.0718C112.435 79.9751 144.611 96.1059 184.305 96.1059V0C144.611 0 112.435 40.1742 112.435 60.0718Z" fill="black"/>
</g>
</g>
<defs>
<linearGradient id="paint0_linear" x1="184.667" y1="380.306" x2="184.667" y2="81.1233" gradientUnits="userSpaceOnUse">
<stop stop-color="#808080" stop-opacity="0.25"/>
<stop offset="0.54" stop-color="#808080" stop-opacity="0.12"/>
<stop offset="1" stop-color="#808080" stop-opacity="0.1"/>
</linearGradient>
<clipPath id="clip0">
<rect width="501" height="400" fill="white"/>
</clipPath>
</defs>
</svg>
